<?xml version="1.0" standalone="no"?>
<!DOCTYPE svg PUBLIC "-//W3C//DTD SVG 1.1//EN" "http://www.w3.org/Graphics/SVG/1.1/DTD/svg11.dtd" >
<svg xmlns="http://www.w3.org/2000/svg" version="1.1">
<metadata>
This is a custom SVG webfont generated by Typotheque.
</metadata>
<defs>
<font id="typotheque_webfonts_service" horiz-adv-x="671" >
<font-face units-per-em="1000" ascent="780" descent="-220" />
<missing-glyph horiz-adv-x="261" />
<glyph unicode=" "  horiz-adv-x="261" />
<glyph unicode="&#x09;" horiz-adv-x="261" />
<glyph unicode="&#xa0;" horiz-adv-x="261" />
<glyph unicode="A" d="M290 707h107l257 -707h-89l-94 264h-279l-105 -264h-87zM449 330l-110 319l-122 -319h232z" />
<glyph unicode="B" horiz-adv-x="636" d="M106 707h193q60 0 103.5 -13.5t71 -37t41 -56t13.5 -71.5q0 -57 -26.5 -97.5t-71.5 -56.5v-3q28 -5 54.5 -17.5t47.5 -33.5t34 -51t13 -69q0 -44 -13.5 -81t-43.5 -63.5t-77.5 -41.5t-115.5 -15h-223v707zM314 68q37 0 69.5 5t57.5 19.5t39.5 39.5t14.5 66q0 72 -53 102 t-143 30h-111v-262h126zM310 396q68 0 101 31t33 89q0 72 -43 99.5t-123 27.5h-90v-247h122z" />
<glyph unicode="C" horiz-adv-x="677" d="M427 -12q-88 0 -156 26.5t-115 74.5t-71.5 114.5t-24.5 145.5q0 82 24.5 150t71.5 116.5t114 75t153 26.5q78 0 126.5 -13t78.5 -27l-25 -66q-19 7 -38 13t-40 10.5t-45.5 7.5t-54.5 3q-56 0 -106.5 -15.5t-89 -50t-61.5 -89t-23 -131.5q0 -79 24 -135.5t64.5 -92.5 t94.5 -52.5t115 -16.5q50 0 91.5 7t74.5 19l20 -66q-17 -6 -36.5 -12.5t-43.5 -11t-54 -7.5t-68 -3z" />
<glyph unicode="D" horiz-adv-x="754" d="M106 707h191q85 0 157.5 -20.5t125.5 -63.5t82.5 -109.5t29.5 -157.5q0 -93 -27.5 -160.5t-78.5 -111t-123 -64t-160 -20.5h-197v707zM314 68q137 0 215 69.5t78 207.5q0 75 -22.5 130.5t-63.5 91.5t-99 54t-128 18h-106v-571h126z" />
<glyph unicode="E" horiz-adv-x="582" d="M106 707h396v-67h-314v-251h292v-68h-292v-253h337v-68h-419v707z" />
<glyph unicode="F" horiz-adv-x="569" d="M106 707h416v-67h-334v-271h312v-68h-312v-301h-82v707z" />
<glyph unicode="G" horiz-adv-x="711" d="M432 -12q-87 0 -156 25.5t-117 72.5t-73.5 113.5t-25.5 149.5q0 84 24 152t70.5 116t113.5 74t154 26q40 0 71 -3t55 -8.5t42.5 -12.5t35.5 -14l-23 -67q-17 6 -35 12t-39 10.5t-47 7.5t-58 3q-55 0 -105.5 -15.5t-88.5 -50t-61 -89t-23 -131.5q0 -79 24 -135.5 t64.5 -92.5t94.5 -53t114 -17q40 0 67 4.5t47 10.5v272h82v-325q-44 -15 -94 -25t-113 -10z" />
<glyph unicode="H" horiz-adv-x="764" d="M106 707h82v-318h388v318h82v-707h-82v321h-388v-321h-82v707z" />
<glyph unicode="I" horiz-adv-x="294" d="M106 707h82v-707h-82v707z" />
<glyph unicode="J" horiz-adv-x="295" d="M-37 -127q45 25 73.5 53.5t44.5 62t21.5 73.5t5.5 89v556h83v-554q0 -57 -7 -107t-27.5 -92.5t-58.5 -77.5t-100 -63z" />
<glyph unicode="K" horiz-adv-x="628" d="M214 370v15l280 322h104l-293 -327l313 -380h-108zM106 707h82v-707h-82v707z" />
<glyph unicode="L" horiz-adv-x="503" d="M106 707h82v-636h307v-71h-389v707z" />
<glyph unicode="M" horiz-adv-x="942" d="M106 707h111l242 -658l272 658h105v-707h-83v475l4 109h-3l-238 -584h-119l-211 586h-3l5 -98v-488h-82v707z" />
<glyph unicode="N" horiz-adv-x="770" d="M106 707h105l372 -614h2l-4 89v525h83v-707h-110l-367 605h-3l4 -73v-532h-82v707z" />
<glyph unicode="O" horiz-adv-x="828" d="M406 -12q-83 0 -147 27t-108.5 75.5t-67.5 116t-23 148.5q0 83 25.5 150t73 114t114 72.5t147.5 25.5q85 0 150.5 -28t109 -77t66 -115.5t22.5 -143.5q0 -81 -25 -148t-71.5 -115.5t-113.5 -75t-152 -26.5zM409 56q70 0 122 23t86.5 63t51 94.5t16.5 117.5t-17.5 117 t-52 93.5t-84.5 62t-115 22.5q-68 0 -119.5 -22.5t-86 -62t-51.5 -93t-17 -115.5q0 -60 16.5 -114.5t50 -96t83.5 -65.5t117 -24z" />
<glyph unicode="P" horiz-adv-x="603" d="M106 707h230q106 0 167.5 -56.5t61.5 -164.5q0 -47 -16.5 -89t-51 -73.5t-87.5 -50t-126 -18.5h-33v69h39q42 0 76.5 9t59 27.5t38.5 48.5t14 72q0 81 -40 120t-124 39h-126v-640h-82v707z" />
<glyph unicode="Q" horiz-adv-x="828" d="M789 -160h-41.5t-42.5 2q-37 2 -78.5 7t-88.5 22q-38 14 -69.5 23t-69.5 9v64q48 0 80 -8.5t57 -16.5q28 -10 51.5 -16t44 -9.5t40 -5t41.5 -1.5q17 -2 36 -2h40v-68zM406 -12q-83 0 -147 27t-108.5 75.5t-67.5 116t-23 148.5q0 83 25.5 150t73 114t114 72.5t147.5 25.5 q85 0 150.5 -28t109 -77t66 -115.5t22.5 -143.5q0 -81 -25 -148t-71.5 -115.5t-113.5 -75t-152 -26.5zM409 56q70 0 122 23t86.5 63t51 94.5t16.5 117.5t-17.5 117t-52 93.5t-84.5 62t-115 22.5q-68 0 -119.5 -22.5t-86 -62t-51.5 -93t-17 -115.5q0 -60 16.5 -114.5t50 -96 t83.5 -65.5t117 -24z" />
<glyph unicode="R" horiz-adv-x="691" d="M664 -12q-64 8 -112 47t-96 104l-105 147q-13 -2 -31.5 -3.5t-34.5 -1.5h-97v-281h-82v707h231q51 0 93 -12t72 -37.5t46.5 -64.5t16.5 -93q0 -62 -31 -114.5t-102 -79.5l95 -130q35 -46 70 -78t85 -47zM291 350q41 0 75.5 7t59.5 23.5t39 44t14 69.5q0 81 -41.5 113.5 t-122.5 32.5h-127v-290h103z" />
<glyph unicode="S" horiz-adv-x="542" d="M246 -12q-66 0 -116 15t-81 34l26 68q39 -20 80 -32.5t92 -12.5q29 0 58.5 6t53.5 20.5t39 37.5t15 57q0 44 -25.5 72t-64.5 48.5t-83.5 39t-83.5 44t-64.5 62.5t-25.5 95q0 43 17 75.5t46 54.5t67.5 33.5t80.5 11.5q60 0 101 -11t73 -28l-25 -64q-35 16 -70 25t-77 9 q-27 0 -51.5 -6t-43 -19t-29 -32.5t-10.5 -46.5q0 -40 26 -66t65 -47t84.5 -41t84.5 -46.5t65 -63.5t26 -93q0 -51 -20 -88t-54 -62t-79.5 -37t-96.5 -12z" />
<glyph unicode="T" horiz-adv-x="584" d="M251 637h-242v70h566v-70h-242v-637h-82v637z" />
<glyph unicode="U" horiz-adv-x="758" d="M379 -12q-51 0 -102 11.5t-91 40.5t-65 79t-25 127v461h83v-454q0 -58 17 -95.5t45.5 -59.5t64 -30.5t73.5 -8.5q41 0 78 10.5t64.5 35t43.5 66.5t16 105v431h81v-434q0 -85 -26.5 -140t-67.5 -87.5t-91 -45t-98 -12.5z" />
<glyph unicode="V" horiz-adv-x="664" d="M14 707h90l224 -642l252 642h83l-280 -707h-114z" />
<glyph unicode="W" horiz-adv-x="1037" d="M33 707h84l177 -657l193 483l-59 174h83l221 -656l210 656h80l-232 -707h-119l-149 437l-174 -437h-119z" />
<glyph unicode="X" horiz-adv-x="609" d="M259 374l-206 333h94l161 -267l172 267h89l-218 -331l234 -376h-96l-186 310l-199 -310h-94z" />
<glyph unicode="Y" horiz-adv-x="602" d="M258 268l-231 439h93l182 -366l196 366h88l-246 -439v-268h-82v268z" />
<glyph unicode="Z" horiz-adv-x="570" d="M42 71l374 565h-348v71h440v-65l-379 -571h400v-71h-487v71z" />
<glyph unicode="&#xc1;" d="M290 707h107l257 -707h-89l-94 264h-279l-105 -264h-87zM449 330l-110 319l-122 -319h232zM257 799l219 84l21 -67l-224 -69z" />
<glyph unicode="&#xc2;" d="M290 707h107l257 -707h-89l-94 264h-279l-105 -264h-87zM449 330l-110 319l-122 -319h232zM186 804l157 76l152 -74l-29 -55l-123 57l-129 -58z" />
<glyph unicode="&#xc4;" d="M290 707h107l257 -707h-89l-94 264h-279l-105 -264h-87zM449 330l-110 319l-122 -319h232zM182 805l58 58l57 -58l-57 -58zM379 805l57 58l58 -58l-58 -58z" />
<glyph unicode="&#xc5;" d="M290 707h107l257 -707h-89l-94 264h-279l-105 -264h-87zM449 330l-110 319l-122 -319h232zM345 744q-19 0 -37 5t-31.5 15.5t-22 27t-8.5 40.5q0 22 8 39.5t21.5 28.5t31 17t36.5 6q16 0 33.5 -4.5t31.5 -15t23.5 -27.5t9.5 -42q0 -44 -28 -67t-68 -23zM344 781 q25 0 39 14t14 38q0 23 -16 37.5t-38 14.5q-24 0 -39 -13t-15 -37t15.5 -39t39.5 -15z" />
<glyph unicode="&#xc0;" d="M173 812l21 68l221 -80l-18 -53zM290 707h107l257 -707h-89l-94 264h-279l-105 -264h-87zM449 330l-110 319l-122 -319h232z" />
<glyph unicode="&#xc3;" d="M290 707h107l257 -707h-89l-94 264h-279l-105 -264h-87zM449 330l-110 319l-122 -319h232zM405 754q-15 0 -30.5 6t-30.5 12.5t-30 12.5t-29 6q-18 0 -35 -5.5t-34 -18.5l-31 45q14 13 41 29.5t59 16.5q19 0 35.5 -6t31 -12.5t27.5 -12.5t26 -6q26 0 38.5 7t25.5 19 l31 -44q-11 -15 -34.5 -32t-60.5 -17z" />
<glyph unicode="&#x1fa;" d="M290 707h107l257 -707h-89l-94 264h-279l-105 -264h-87zM449 330l-110 319l-122 -319h232zM228 950l219 84l21 -67l-224 -69zM346 723q-19 0 -37 5t-31.5 15.5t-22 27t-8.5 40.5q0 22 8 39.5t21.5 28.5t31 17t36.5 6q16 0 33.5 -4.5t31.5 -15t23.5 -27.5t9.5 -42 q0 -44 -28 -67t-68 -23zM345 760q25 0 39 14t14 38q0 23 -16 37.5t-38 14.5q-24 0 -39 -13t-15 -37t15.5 -39t39.5 -15z" />
<glyph unicode="&#xc7;" horiz-adv-x="677" d="M427 -12q-88 0 -156 26.5t-115 74.5t-71.5 114.5t-24.5 145.5q0 82 24.5 150t71.5 116.5t114 75t153 26.5q78 0 126.5 -13t78.5 -27l-25 -66q-19 7 -38 13t-40 10.5t-45.5 7.5t-54.5 3q-56 0 -106.5 -15.5t-89 -50t-61.5 -89t-23 -131.5q0 -79 24 -135.5t64.5 -92.5 t94.5 -52.5t115 -16.5q50 0 91.5 7t74.5 19l20 -66q-17 -6 -36.5 -12.5t-43.5 -11t-54 -7.5t-68 -3zM339 -195q32 20 45.5 38.5t13.5 38.5q0 16 -7 32.5t-17 34.5h77q8 -15 14 -32.5t6 -34.5q1 -33 -23 -65t-83 -57z" />
<glyph unicode="&#x106;" horiz-adv-x="677" d="M427 -12q-88 0 -156 26.5t-115 74.5t-71.5 114.5t-24.5 145.5q0 82 24.5 150t71.5 116.5t114 75t153 26.5q78 0 126.5 -13t78.5 -27l-25 -66q-19 7 -38 13t-40 10.5t-45.5 7.5t-54.5 3q-56 0 -106.5 -15.5t-89 -50t-61.5 -89t-23 -131.5q0 -79 24 -135.5t64.5 -92.5 t94.5 -52.5t115 -16.5q50 0 91.5 7t74.5 19l20 -66q-17 -6 -36.5 -12.5t-43.5 -11t-54 -7.5t-68 -3zM312 799l219 84l21 -67l-224 -69z" />
<glyph unicode="&#x10c;" horiz-adv-x="677" d="M421 746l-155 74l27 56l128 -58l131 57l28 -55zM427 -12q-88 0 -156 26.5t-115 74.5t-71.5 114.5t-24.5 145.5q0 82 24.5 150t71.5 116.5t114 75t153 26.5q78 0 126.5 -13t78.5 -27l-25 -66q-19 7 -38 13t-40 10.5t-45.5 7.5t-54.5 3q-56 0 -106.5 -15.5t-89 -50 t-61.5 -89t-23 -131.5q0 -79 24 -135.5t64.5 -92.5t94.5 -52.5t115 -16.5q50 0 91.5 7t74.5 19l20 -66q-17 -6 -36.5 -12.5t-43.5 -11t-54 -7.5t-68 -3z" />
<glyph unicode="&#x110;" horiz-adv-x="781" d="M53 383h79v324h191q85 0 157.5 -20.5t125.5 -63.5t82.5 -109.5t29.5 -157.5q0 -93 -27.5 -160.5t-78.5 -111t-123 -64t-160 -20.5h-197v320h-79v63zM340 68q137 0 215 69.5t78 207.5q0 75 -22.5 130.5t-63.5 91.5t-99 54t-128 18h-106v-256h168v-63h-168v-252h126z" />
<glyph unicode="&#xc9;" horiz-adv-x="582" d="M224 799l219 84l21 -67l-224 -69zM106 707h396v-67h-314v-251h292v-68h-292v-253h337v-68h-419v707z" />
<glyph unicode="&#xca;" horiz-adv-x="582" d="M106 707h396v-67h-314v-251h292v-68h-292v-253h337v-68h-419v707zM152 804l157 76l152 -74l-29 -55l-123 57l-129 -58z" />
<glyph unicode="&#xcb;" horiz-adv-x="582" d="M152 805l58 58l57 -58l-57 -58zM349 805l57 58l58 -58l-58 -58zM106 707h396v-67h-314v-251h292v-68h-292v-253h337v-68h-419v707z" />
<glyph unicode="&#xc8;" horiz-adv-x="582" d="M164 812l21 68l221 -80l-18 -53zM106 707h396v-67h-314v-251h292v-68h-292v-253h337v-68h-419v707z" />
<glyph unicode="&#xcd;" horiz-adv-x="294" d="M106 707h82v-707h-82v707zM85 799l219 84l21 -67l-224 -69z" />
<glyph unicode="&#xce;" horiz-adv-x="294" d="M106 707h82v-707h-82v707zM-6 804l157 76l152 -74l-29 -55l-123 57l-129 -58z" />
<glyph unicode="&#xcf;" horiz-adv-x="294" d="M106 707h82v-707h-82v707zM-9 805l58 58l57 -58l-57 -58zM188 805l57 58l58 -58l-58 -58z" />
<glyph unicode="&#xcc;" horiz-adv-x="294" d="M-30 812l21 68l221 -80l-18 -53zM106 707h82v-707h-82v707z" />
<glyph unicode="&#x13f;" horiz-adv-x="503" d="M327 372l63 64l65 -64l-65 -66zM106 707h82v-636h307v-71h-389v707z" />
<glyph unicode="&#xd1;" horiz-adv-x="770" d="M455 754q-15 0 -30.5 6t-30.5 12.5t-30 12.5t-29 6q-18 0 -35 -5.5t-34 -18.5l-31 45q14 13 41 29.5t59 16.5q19 0 35.5 -6t31 -12.5t27.5 -12.5t26 -6q26 0 38.5 7t25.5 19l31 -44q-11 -15 -34.5 -32t-60.5 -17zM106 707h105l372 -614h2l-4 89v525h83v-707h-110 l-367 605h-3l4 -73v-532h-82v707z" />
<glyph unicode="&#xd2;" horiz-adv-x="828" d="M270 812l21 68l221 -80l-18 -53zM406 -12q-83 0 -147 27t-108.5 75.5t-67.5 116t-23 148.5q0 83 25.5 150t73 114t114 72.5t147.5 25.5q85 0 150.5 -28t109 -77t66 -115.5t22.5 -143.5q0 -81 -25 -148t-71.5 -115.5t-113.5 -75t-152 -26.5zM409 56q70 0 122 23t86.5 63 t51 94.5t16.5 117.5t-17.5 117t-52 93.5t-84.5 62t-115 22.5q-68 0 -119.5 -22.5t-86 -62t-51.5 -93t-17 -115.5q0 -60 16.5 -114.5t50 -96t83.5 -65.5t117 -24z" />
<glyph unicode="&#xd6;" horiz-adv-x="828" d="M253 805l58 58l57 -58l-57 -58zM450 805l57 58l58 -58l-58 -58zM406 -12q-83 0 -147 27t-108.5 75.5t-67.5 116t-23 148.5q0 83 25.5 150t73 114t114 72.5t147.5 25.5q85 0 150.5 -28t109 -77t66 -115.5t22.5 -143.5q0 -81 -25 -148t-71.5 -115.5t-113.5 -75t-152 -26.5z M409 56q70 0 122 23t86.5 63t51 94.5t16.5 117.5t-17.5 117t-52 93.5t-84.5 62t-115 22.5q-68 0 -119.5 -22.5t-86 -62t-51.5 -93t-17 -115.5q0 -60 16.5 -114.5t50 -96t83.5 -65.5t117 -24z" />
<glyph unicode="&#xd5;" horiz-adv-x="828" d="M482 754q-15 0 -30.5 6t-30.5 12.5t-30 12.5t-29 6q-18 0 -35 -5.5t-34 -18.5l-31 45q14 13 41 29.5t59 16.5q19 0 35.5 -6t31 -12.5t27.5 -12.5t26 -6q26 0 38.5 7t25.5 19l31 -44q-11 -15 -34.5 -32t-60.5 -17zM406 -12q-83 0 -147 27t-108.5 75.5t-67.5 116t-23 148.5 q0 83 25.5 150t73 114t114 72.5t147.5 25.5q85 0 150.5 -28t109 -77t66 -115.5t22.5 -143.5q0 -81 -25 -148t-71.5 -115.5t-113.5 -75t-152 -26.5zM409 56q70 0 122 23t86.5 63t51 94.5t16.5 117.5t-17.5 117t-52 93.5t-84.5 62t-115 22.5q-68 0 -119.5 -22.5t-86 -62 t-51.5 -93t-17 -115.5q0 -60 16.5 -114.5t50 -96t83.5 -65.5t117 -24z" />
<glyph unicode="&#xd3;" horiz-adv-x="828" d="M309 799l219 84l21 -67l-224 -69zM406 -12q-83 0 -147 27t-108.5 75.5t-67.5 116t-23 148.5q0 83 25.5 150t73 114t114 72.5t147.5 25.5q85 0 150.5 -28t109 -77t66 -115.5t22.5 -143.5q0 -81 -25 -148t-71.5 -115.5t-113.5 -75t-152 -26.5zM409 56q70 0 122 23t86.5 63 t51 94.5t16.5 117.5t-17.5 117t-52 93.5t-84.5 62t-115 22.5q-68 0 -119.5 -22.5t-86 -62t-51.5 -93t-17 -115.5q0 -60 16.5 -114.5t50 -96t83.5 -65.5t117 -24z" />
<glyph unicode="&#xd4;" horiz-adv-x="828" d="M261 804l157 76l152 -74l-29 -55l-123 57l-129 -58zM406 -12q-83 0 -147 27t-108.5 75.5t-67.5 116t-23 148.5q0 83 25.5 150t73 114t114 72.5t147.5 25.5q85 0 150.5 -28t109 -77t66 -115.5t22.5 -143.5q0 -81 -25 -148t-71.5 -115.5t-113.5 -75t-152 -26.5zM409 56 q70 0 122 23t86.5 63t51 94.5t16.5 117.5t-17.5 117t-52 93.5t-84.5 62t-115 22.5q-68 0 -119.5 -22.5t-86 -62t-51.5 -93t-17 -115.5q0 -60 16.5 -114.5t50 -96t83.5 -65.5t117 -24z" />
<glyph unicode="&#xd8;" horiz-adv-x="859" d="M53 9l96 100q-37 48 -55.5 110t-18.5 136q0 83 25.5 150t73 114t114 72.5t147.5 25.5q72 0 129 -20t100 -56l95 98l41 -37l-97 -100q40 -49 60 -112.5t20 -136.5q0 -81 -25 -148t-71.5 -115.5t-113.5 -75t-152 -26.5q-74 0 -132 21t-102 60l-96 -99zM424 56q70 0 122 23 t86.5 63t51 94.5t16.5 117.5q0 112 -54 189l-404 -417q33 -33 78 -51.5t104 -18.5zM157 356q0 -53 12 -101t38 -87l403 417q-33 31 -78 47.5t-101 16.5q-68 0 -119.5 -22.5t-86 -62t-51.5 -93t-17 -115.5z" />
<glyph unicode="&#x1fe;" horiz-adv-x="859" d="M53 9l96 100q-37 48 -55.5 110t-18.5 136q0 83 25.5 150t73 114t114 72.5t147.5 25.5q72 0 129 -20t100 -56l95 98l41 -37l-97 -100q40 -49 60 -112.5t20 -136.5q0 -81 -25 -148t-71.5 -115.5t-113.5 -75t-152 -26.5q-74 0 -132 21t-102 60l-96 -99zM424 56q70 0 122 23 t86.5 63t51 94.5t16.5 117.5q0 112 -54 189l-404 -417q33 -33 78 -51.5t104 -18.5zM157 356q0 -53 12 -101t38 -87l403 417q-33 31 -78 47.5t-101 16.5q-68 0 -119.5 -22.5t-86 -62t-51.5 -93t-17 -115.5zM332 799l219 84l21 -67l-224 -69z" />
<glyph unicode="&#x160;" horiz-adv-x="542" d="M270 746l-155 74l27 56l128 -58l131 57l28 -55zM246 -12q-66 0 -116 15t-81 34l26 68q39 -20 80 -32.5t92 -12.5q29 0 58.5 6t53.5 20.5t39 37.5t15 57q0 44 -25.5 72t-64.5 48.5t-83.5 39t-83.5 44t-64.5 62.5t-25.5 95q0 43 17 75.5t46 54.5t67.5 33.5t80.5 11.5 q60 0 101 -11t73 -28l-25 -64q-35 16 -70 25t-77 9q-27 0 -51.5 -6t-43 -19t-29 -32.5t-10.5 -46.5q0 -40 26 -66t65 -47t84.5 -41t84.5 -46.5t65 -63.5t26 -93q0 -51 -20 -88t-54 -62t-79.5 -37t-96.5 -12z" />
<glyph unicode="&#xda;" horiz-adv-x="758" d="M298 799l219 84l21 -67l-224 -69zM379 -12q-51 0 -102 11.5t-91 40.5t-65 79t-25 127v461h83v-454q0 -58 17 -95.5t45.5 -59.5t64 -30.5t73.5 -8.5q41 0 78 10.5t64.5 35t43.5 66.5t16 105v431h81v-434q0 -85 -26.5 -140t-67.5 -87.5t-91 -45t-98 -12.5z" />
<glyph unicode="&#xdb;" horiz-adv-x="758" d="M379 -12q-51 0 -102 11.5t-91 40.5t-65 79t-25 127v461h83v-454q0 -58 17 -95.5t45.5 -59.5t64 -30.5t73.5 -8.5q41 0 78 10.5t64.5 35t43.5 66.5t16 105v431h81v-434q0 -85 -26.5 -140t-67.5 -87.5t-91 -45t-98 -12.5zM229 804l157 76l152 -74l-29 -55l-123 57l-129 -58 z" />
<glyph unicode="&#xd9;" horiz-adv-x="758" d="M220 812l21 68l221 -80l-18 -53zM379 -12q-51 0 -102 11.5t-91 40.5t-65 79t-25 127v461h83v-454q0 -58 17 -95.5t45.5 -59.5t64 -30.5t73.5 -8.5q41 0 78 10.5t64.5 35t43.5 66.5t16 105v431h81v-434q0 -85 -26.5 -140t-67.5 -87.5t-91 -45t-98 -12.5z" />
<glyph unicode="&#xdc;" horiz-adv-x="758" d="M224 805l58 58l57 -58l-57 -58zM421 805l57 58l58 -58l-58 -58zM379 -12q-51 0 -102 11.5t-91 40.5t-65 79t-25 127v461h83v-454q0 -58 17 -95.5t45.5 -59.5t64 -30.5t73.5 -8.5q41 0 78 10.5t64.5 35t43.5 66.5t16 105v431h81v-434q0 -85 -26.5 -140t-67.5 -87.5 t-91 -45t-98 -12.5z" />
<glyph unicode="&#x178;" horiz-adv-x="602" d="M258 268l-231 439h93l182 -366l196 366h88l-246 -439v-268h-82v268zM145 805l58 58l57 -58l-57 -58zM342 805l57 58l58 -58l-58 -58z" />
<glyph unicode="&#xdd;" horiz-adv-x="602" d="M258 268l-231 439h93l182 -366l196 366h88l-246 -439v-268h-82v268zM222 799l219 84l21 -67l-224 -69z" />
<glyph unicode="&#x17d;" horiz-adv-x="570" d="M283 746l-155 74l27 56l128 -58l131 57l28 -55zM42 71l374 565h-348v71h440v-65l-379 -571h400v-71h-487v71z" />
<glyph unicode="&#xde;" horiz-adv-x="606" d="M106 707h82v-130h149q106 0 167.5 -52t61.5 -164q0 -47 -16.5 -88t-51 -71t-87.5 -47t-126 -17h-28v69h34q41 0 75.5 7.5t59.5 25t39 46t14 70.5q0 81 -39.5 117.5t-124.5 36.5h-126v-510h-83v707z" />
<glyph unicode="&#xd0;" horiz-adv-x="781" d="M53 383h79v324h191q85 0 157.5 -20.5t125.5 -63.5t82.5 -109.5t29.5 -157.5q0 -93 -27.5 -160.5t-78.5 -111t-123 -64t-160 -20.5h-197v320h-79v63zM340 68q137 0 215 69.5t78 207.5q0 75 -22.5 130.5t-63.5 91.5t-99 54t-128 18h-106v-256h168v-63h-168v-252h126z" />
<glyph unicode="&#xc6;" horiz-adv-x="913" d="M362 707h471v-67h-314v-251h292v-68h-292v-253h338v-68h-420v311h-197l-161 -311h-93zM437 378v262h-28l-136 -262h164z" />
<glyph unicode="&#x1fc;" horiz-adv-x="913" d="M483 799l219 84l21 -67l-224 -69zM362 707h471v-67h-314v-251h292v-68h-292v-253h338v-68h-420v311h-197l-161 -311h-93zM437 378v262h-28l-136 -262h164z" />
<glyph unicode="&#x152;" horiz-adv-x="1099" d="M406 -12q-83 0 -147 27t-108.5 75.5t-67.5 116t-23 148.5q0 84 26.5 151.5t74.5 114.5t115 72t149 25q60 0 109 -15.5t87 -41.5v46h396v-67h-312v-251h290v-68h-290v-253h337v-68h-421v53q-21 -14 -42.5 -26t-46.5 -20.5t-55.5 -13.5t-70.5 -5zM409 59q73 0 126 24.5 t86 67.5v403q-33 44 -84.5 68t-120.5 24q-68 0 -118.5 -22.5t-84.5 -61.5t-51 -92t-17 -114q0 -60 16.5 -113.5t49.5 -94.5t82.5 -65t115.5 -24z" />
<glyph unicode="&#x132;" horiz-adv-x="584" d="M106 707h82v-707h-82v707zM251 -127q45 25 73.5 53.5t44.5 62t21.5 73.5t5.5 89v556h83v-554q0 -57 -7 -107t-27.5 -92.5t-58.5 -77.5t-100 -63z" />
<glyph unicode="a" horiz-adv-x="552" d="M206 -9q-75 0 -119 39.5t-44 114.5q0 51 20 83t51 50t68 25t70 8l130 2v70q0 33 -8 54t-23.5 33t-39.5 16.5t-56 4.5q-45 0 -79.5 -7t-68.5 -20l-18 62q32 14 76.5 24t100.5 10q90 0 141.5 -35.5t51.5 -115.5v-302q0 -15 5.5 -25t14 -15.5t19 -7.5t20.5 -2l-3 -61 q-10 -2 -22 -2q-18 0 -35.5 4t-32 12t-24.5 21.5t-13 31.5q-10 -8 -26.5 -20t-39.5 -23.5t-52 -20t-64 -8.5zM224 55q45 0 86 19t72 42v142l-131 -5q-64 -2 -98 -29.5t-34 -75.5t30 -70.5t75 -22.5z" />
<glyph unicode="b" horiz-adv-x="587" d="M254 -12q-48 0 -94 9t-79 21v736h78v-683q17 -5 47 -10.5t62 -5.5q48 0 82.5 17.5t57 49t33.5 75t11 96.5q0 36 -6 71.5t-23 64t-47 46t-78 17.5q-22 0 -40.5 -3.5t-34.5 -8.5l-7 58q15 8 38.5 13t55.5 5q109 0 166 -67t57 -200q0 -83 -21.5 -140.5t-59.5 -93t-89 -51.5 t-109 -16z" />
<glyph unicode="c" horiz-adv-x="497" d="M325 -12q-140 0 -206 67t-66 207q0 73 18 129t52 93.5t81.5 56.5t107.5 19q51 0 88 -11t57 -22l-24 -63q-17 7 -48 17t-73 10q-86 0 -132 -55t-46 -170q0 -51 10 -90t33.5 -65.5t61.5 -40.5t94 -14q36 0 60.5 5t50.5 12l12 -64q-25 -8 -55 -14.5t-76 -6.5z" />
<glyph unicode="d" horiz-adv-x="583" d="M272 -10q-32 0 -70.5 10.5t-71.5 40t-55 82.5t-22 138q0 78 20 134.5t56 93t86 54t109 17.5q25 0 47 -3t49 -11v208h79v-754h-79v52q-29 -26 -62.5 -44t-85.5 -18zM282 57q23 0 44 6.5t39 16t32 20t23 18.5v360q-11 5 -38 11t-63 6q-54 0 -89.5 -19.5t-57 -51.5 t-30.5 -73t-9 -85q0 -54 11.5 -93.5t32 -65t47.5 -38t58 -12.5z" />
<glyph unicode="e" horiz-adv-x="546" d="M313 -12q-60 0 -107.5 13.5t-81.5 45.5t-52 84.5t-18 130.5q0 80 18.5 136.5t50.5 92.5t75.5 52.5t93.5 16.5q105 0 153.5 -68t48.5 -205v-29h-360q1 -63 16.5 -102.5t41.5 -61.5t60.5 -30t73.5 -8q40 0 73.5 6.5t71.5 18.5l14 -64q-31 -13 -75.5 -21t-96.5 -8zM412 317 q0 84 -30.5 132.5t-97.5 48.5q-60 0 -101 -44.5t-48 -136.5h277z" />
<glyph unicode="f" horiz-adv-x="326" d="M111 482h-80v64h80v37q0 50 14 84.5t38 56.5t56 31.5t69 9.5q29 0 48 -3t36 -8l-14 -64q-11 3 -26 5.5t-43 2.5q-52 0 -75.5 -26t-23.5 -88v-38h117v-64h-117v-687h-79v687z" />
<glyph unicode="g" horiz-adv-x="580" d="M265 -230q-45 0 -92 8t-78 22l16 70q35 -12 75.5 -20.5t84.5 -8.5q30 0 57 6t47.5 21.5t32.5 43.5t12 72v55q-29 -23 -58 -34.5t-75 -11.5q-39 0 -80 9.5t-75 38.5t-56 81.5t-22 138.5q0 80 20 136.5t56 92.5t85.5 53t108.5 17q38 0 85 -6.5t88 -16.5v-570 q0 -100 -62.5 -148.5t-169.5 -48.5zM295 57q45 0 73 15.5t51 33.5v370q-11 3 -37 9t-63 6q-53 0 -89 -17t-57.5 -47t-31 -71t-9.5 -90q0 -56 11.5 -96t32.5 -65t51 -36.5t68 -11.5z" />
<glyph unicode="h" horiz-adv-x="602" d="M84 754h79v-271q17 12 37 25.5t44 25t52 18.5t61 7q58 0 91.5 -19.5t49.5 -50t20 -67t4 -70.5v-352h-76v336q0 36 -4 64t-15.5 48t-32.5 30.5t-55 10.5q-26 0 -50.5 -6.5t-46.5 -16t-41.5 -21.5t-37.5 -23v-422h-79v754z" />
<glyph unicode="i" horiz-adv-x="249" d="M84 546h80v-546h-80v546zM58 715l65 66l67 -66l-67 -67z" />
<glyph unicode="j" horiz-adv-x="249" d="M-20 -224q-22 0 -40.5 3.5t-29.5 8.5l14 64q11 -3 27.5 -5.5t29.5 -2.5q30 0 50 10t32 28t16.5 43.5t4.5 56.5v564h80v-565q0 -60 -14.5 -99.5t-39 -63t-58 -33t-72.5 -9.5zM58 715l65 66l67 -66l-67 -67z" />
<glyph unicode="k" horiz-adv-x="537" d="M503 -8q-14 1 -31.5 4.5t-38 14t-44.5 30t-50 52.5l-154 195l230 258h91l-232 -255l112 -138q38 -46 73 -70.5t61 -31.5zM84 754h79v-754h-79v754z" />
<glyph unicode="l" horiz-adv-x="247" d="M84 754h79v-754h-79v754z" />
<glyph unicode="m" horiz-adv-x="935" d="M84 546h79v-64q40 32 83.5 54.5t98.5 22.5q57 0 94 -23.5t51 -57.5q18 14 39 28.5t45.5 26t53 19t61.5 7.5q58 0 91.5 -19.5t50.5 -49.5t21 -67t4 -71v-352h-79v337q0 32 -3.5 59.5t-15 48t-33 32.5t-57.5 12q-48 0 -88.5 -20t-76.5 -46q6 -35 6 -71v-352h-78v337 q0 32 -3.5 60t-14.5 48.5t-31 32.5t-54 12q-45 0 -87 -21t-78 -50v-419h-79v546z" />
<glyph unicode="n" horiz-adv-x="602" d="M84 546h79v-62q21 16 42.5 29.5t44.5 24t49.5 16.5t58.5 6q58 0 91 -19.5t49.5 -50t20.5 -67.5t4 -71v-352h-77v337q0 35 -4 63.5t-15.5 48.5t-32.5 30.5t-56 10.5q-53 0 -95.5 -20.5t-79.5 -46.5v-423h-79v546z" />
<glyph unicode="o" horiz-adv-x="598" d="M296 -12q-113 0 -178 72t-65 207q0 71 18.5 125.5t51.5 92t80 56.5t104 19q117 0 177.5 -74t60.5 -210q0 -74 -19 -128t-52 -89.5t-78.5 -53t-99.5 -17.5zM301 53q49 0 81 19t50.5 50t25.5 70t7 79q0 39 -7 78.5t-25 72t-50 53t-82 20.5t-82.5 -20.5t-51.5 -52.5 t-26.5 -72t-7.5 -79q0 -42 8 -81.5t27.5 -69.5t52 -48.5t80.5 -18.5z" />
<glyph unicode="p" horiz-adv-x="590" d="M84 546h79v-45q36 25 73 41t87 16q99 0 156 -71t57 -205q0 -83 -22 -139t-58.5 -90t-85.5 -49t-103 -15q-26 0 -55.5 3t-48.5 6v-218h-79v766zM266 55q52 0 88.5 16.5t59 46t32.5 70.5t10 89q0 38 -7 76t-24 68.5t-45.5 49.5t-72.5 19q-24 0 -45.5 -5.5t-40 -13.5 t-33 -17t-25.5 -16v-372q12 -2 41.5 -6.5t61.5 -4.5z" />
<glyph unicode="q" horiz-adv-x="580" d="M420 22q-27 -15 -60 -23.5t-73 -8.5q-39 0 -80 11t-75.5 41t-56.5 83t-22 137q0 79 20.5 135.5t56.5 92.5t86 53t109 17q45 0 92 -9t82 -23v-748h-79v242zM294 57q38 0 73 10.5t53 21.5v387q-17 8 -43.5 13t-58.5 5q-54 0 -90 -18.5t-57.5 -49.5t-30.5 -72t-9 -86 q0 -111 44.5 -161t118.5 -50z" />
<glyph unicode="r" horiz-adv-x="387" d="M84 546h79v-73q9 15 24 30.5t34.5 27.5t44 19.5t53.5 7.5q24 0 40 -3.5t24 -5.5l-13 -67q-13 3 -27 5t-38 2q-25 0 -46.5 -8t-39.5 -20.5t-32 -28t-24 -30.5v-402h-79v546z" />
<glyph unicode="s" horiz-adv-x="448" d="M195 -12q-38 0 -80.5 7t-72.5 17l13 67q36 -11 73.5 -17.5t72.5 -6.5q60 0 95.5 22t35.5 63q0 30 -20.5 49.5t-51 34t-66 28t-66 33t-51 48.5t-20.5 74q0 37 14.5 66t39.5 48t59 29t72 10q32 0 70 -6.5t67 -19.5l-18 -63q-26 11 -58 17t-62 6q-57 0 -82 -23t-25 -57 q0 -31 20 -50.5t50.5 -34.5t66 -28.5t66 -33t50.5 -48.5t20 -74q0 -44 -19.5 -74t-50 -48.5t-68.5 -26.5t-74 -8z" />
<glyph unicode="t" horiz-adv-x="398" d="M270 -12q-38 0 -69 7.5t-52.5 26t-33 50.5t-11.5 80v327h-80v67h80v112h77v-112h171v-67h-170v-324q0 -58 25 -78t73 -20q23 0 49 5t43 11l14 -65q-21 -8 -54.5 -14t-61.5 -6z" />
<glyph unicode="u" horiz-adv-x="599" d="M241 -12q-56 0 -88.5 20t-48.5 50.5t-20 67.5t-4 72v348h78v-332q0 -32 2.5 -60t13 -49t31.5 -33t58 -12q26 0 51 6.5t47.5 16.5t42 22t35.5 23v418h76v-546h-76v64q-20 -14 -40 -27.5t-44 -24.5t-52 -17.5t-62 -6.5z" />
<glyph unicode="v" horiz-adv-x="515" d="M19 546h86l114 -375l36 -116l38 118l130 373h81l-197 -546h-109z" />
<glyph unicode="w" horiz-adv-x="877" d="M21 546h83l141 -489l148 489h101l130 -489l160 489h79l-188 -546h-106l-110 399l-17 75l-19 -74l-126 -400h-107z" />
<glyph unicode="x" horiz-adv-x="513" d="M212 279l-179 267h92l132 -211l133 211h88l-176 -265l190 -281h-95l-140 224l-142 -224h-93z" />
<glyph unicode="y" horiz-adv-x="511" d="M230 0h-37l-176 546h86l118 -390l31 -98l32 96l134 392h81l-267 -766h-76z" />
<glyph unicode="z" horiz-adv-x="500" d="M37 68l323 409h-297v69h387v-64l-325 -413h329v-69h-417v68z" />
<glyph unicode="&#xe1;" horiz-adv-x="552" d="M206 -9q-75 0 -119 39.5t-44 114.5q0 51 20 83t51 50t68 25t70 8l130 2v70q0 33 -8 54t-23.5 33t-39.5 16.5t-56 4.5q-45 0 -79.5 -7t-68.5 -20l-18 62q32 14 76.5 24t100.5 10q90 0 141.5 -35.5t51.5 -115.5v-302q0 -15 5.5 -25t14 -15.5t19 -7.5t20.5 -2l-3 -61 q-10 -2 -22 -2q-18 0 -35.5 4t-32 12t-24.5 21.5t-13 31.5q-10 -8 -26.5 -20t-39.5 -23.5t-52 -20t-64 -8.5zM224 55q45 0 86 19t72 42v142l-131 -5q-64 -2 -98 -29.5t-34 -75.5t30 -70.5t75 -22.5zM184 667l188 128l35 -56l-195 -121z" />
<glyph unicode="&#xe0;" horiz-adv-x="552" d="M206 -9q-75 0 -119 39.5t-44 114.5q0 51 20 83t51 50t68 25t70 8l130 2v70q0 33 -8 54t-23.5 33t-39.5 16.5t-56 4.5q-45 0 -79.5 -7t-68.5 -20l-18 62q32 14 76.5 24t100.5 10q90 0 141.5 -35.5t51.5 -115.5v-302q0 -15 5.5 -25t14 -15.5t19 -7.5t20.5 -2l-3 -61 q-10 -2 -22 -2q-18 0 -35.5 4t-32 12t-24.5 21.5t-13 31.5q-10 -8 -26.5 -20t-39.5 -23.5t-52 -20t-64 -8.5zM224 55q45 0 86 19t72 42v142l-131 -5q-64 -2 -98 -29.5t-34 -75.5t30 -70.5t75 -22.5zM141 739l35 60l189 -130l-31 -50z" />
<glyph unicode="&#xe2;" horiz-adv-x="552" d="M265 712l-129 -84l-34 46l166 113l152 -111l-35 -47zM206 -9q-75 0 -119 39.5t-44 114.5q0 51 20 83t51 50t68 25t70 8l130 2v70q0 33 -8 54t-23.5 33t-39.5 16.5t-56 4.5q-45 0 -79.5 -7t-68.5 -20l-18 62q32 14 76.5 24t100.5 10q90 0 141.5 -35.5t51.5 -115.5v-302 q0 -15 5.5 -25t14 -15.5t19 -7.5t20.5 -2l-3 -61q-10 -2 -22 -2q-18 0 -35.5 4t-32 12t-24.5 21.5t-13 31.5q-10 -8 -26.5 -20t-39.5 -23.5t-52 -20t-64 -8.5zM224 55q45 0 86 19t72 42v142l-131 -5q-64 -2 -98 -29.5t-34 -75.5t30 -70.5t75 -22.5z" />
<glyph unicode="&#xe4;" horiz-adv-x="552" d="M115 716l56 56l56 -56l-56 -57zM312 716l56 56l56 -56l-56 -57zM206 -9q-75 0 -119 39.5t-44 114.5q0 51 20 83t51 50t68 25t70 8l130 2v70q0 33 -8 54t-23.5 33t-39.5 16.5t-56 4.5q-45 0 -79.5 -7t-68.5 -20l-18 62q32 14 76.5 24t100.5 10q90 0 141.5 -35.5 t51.5 -115.5v-302q0 -15 5.5 -25t14 -15.5t19 -7.5t20.5 -2l-3 -61q-10 -2 -22 -2q-18 0 -35.5 4t-32 12t-24.5 21.5t-13 31.5q-10 -8 -26.5 -20t-39.5 -23.5t-52 -20t-64 -8.5zM224 55q45 0 86 19t72 42v142l-131 -5q-64 -2 -98 -29.5t-34 -75.5t30 -70.5t75 -22.5z" />
<glyph unicode="&#xe3;" horiz-adv-x="552" d="M206 -9q-75 0 -119 39.5t-44 114.5q0 51 20 83t51 50t68 25t70 8l130 2v70q0 33 -8 54t-23.5 33t-39.5 16.5t-56 4.5q-45 0 -79.5 -7t-68.5 -20l-18 62q32 14 76.5 24t100.5 10q90 0 141.5 -35.5t51.5 -115.5v-302q0 -15 5.5 -25t14 -15.5t19 -7.5t20.5 -2l-3 -61 q-10 -2 -22 -2q-18 0 -35.5 4t-32 12t-24.5 21.5t-13 31.5q-10 -8 -26.5 -20t-39.5 -23.5t-52 -20t-64 -8.5zM224 55q45 0 86 19t72 42v142l-131 -5q-64 -2 -98 -29.5t-34 -75.5t30 -70.5t75 -22.5zM332 645q-18 0 -33.5 6t-30 12.5t-29.5 12.5t-31 6q-23 0 -37.5 -5.5 t-31.5 -19.5l-31 46q4 4 12 11.5t21 15t31 13t41 5.5q20 0 36 -6t30.5 -12.5t28 -12.5t28.5 -6q26 0 43 10t27 18l31 -44l-12.5 -12.5t-21.5 -16.5t-31 -14.5t-40 -6.5z" />
<glyph unicode="&#xe5;" horiz-adv-x="552" d="M206 -9q-75 0 -119 39.5t-44 114.5q0 51 20 83t51 50t68 25t70 8l130 2v70q0 33 -8 54t-23.5 33t-39.5 16.5t-56 4.5q-45 0 -79.5 -7t-68.5 -20l-18 62q32 14 76.5 24t100.5 10q90 0 141.5 -35.5t51.5 -115.5v-302q0 -15 5.5 -25t14 -15.5t19 -7.5t20.5 -2l-3 -61 q-10 -2 -22 -2q-18 0 -35.5 4t-32 12t-24.5 21.5t-13 31.5q-10 -8 -26.5 -20t-39.5 -23.5t-52 -20t-64 -8.5zM224 55q45 0 86 19t72 42v142l-131 -5q-64 -2 -98 -29.5t-34 -75.5t30 -70.5t75 -22.5zM284 614q-21 0 -41 5.5t-35.5 17.5t-25 30.5t-9.5 44.5q0 25 9 44t24.5 32 t35 19.5t40.5 6.5q18 0 37.5 -5t35.5 -17t26.5 -31t10.5 -47q0 -49 -31.5 -74.5t-76.5 -25.5zM283 655q28 0 43.5 15.5t16.5 42.5q0 27 -18 42.5t-43 15.5q-28 0 -44 -14.5t-16 -41.5t17 -43.5t44 -16.5z" />
<glyph unicode="&#x1fb;" horiz-adv-x="552" d="M206 -9q-75 0 -119 39.5t-44 114.5q0 51 20 83t51 50t68 25t70 8l130 2v70q0 33 -8 54t-23.5 33t-39.5 16.5t-56 4.5q-45 0 -79.5 -7t-68.5 -20l-18 62q32 14 76.5 24t100.5 10q90 0 141.5 -35.5t51.5 -115.5v-302q0 -15 5.5 -25t14 -15.5t19 -7.5t20.5 -2l-3 -61 q-10 -2 -22 -2q-18 0 -35.5 4t-32 12t-24.5 21.5t-13 31.5q-10 -8 -26.5 -20t-39.5 -23.5t-52 -20t-64 -8.5zM224 55q45 0 86 19t72 42v142l-131 -5q-64 -2 -98 -29.5t-34 -75.5t30 -70.5t75 -22.5zM175 849l219 84l21 -67l-224 -69zM284 604q-20 0 -38.5 5t-33 16t-23 28 t-8.5 41q0 23 8.5 40.5t22.5 29.5t32 18t38 6q16 0 34 -5t33 -15.5t24.5 -28.5t9.5 -43q0 -45 -28.5 -68.5t-70.5 -23.5zM283 642q25 0 39.5 14t14.5 39q0 24 -16.5 39t-38.5 15q-26 0 -41 -13.5t-15 -38.5t16 -40t41 -15z" />
<glyph unicode="&#xe7;" horiz-adv-x="497" d="M325 -12q-140 0 -206 67t-66 207q0 73 18 129t52 93.5t81.5 56.5t107.5 19q51 0 88 -11t57 -22l-24 -63q-17 7 -48 17t-73 10q-86 0 -132 -55t-46 -170q0 -51 10 -90t33.5 -65.5t61.5 -40.5t94 -14q36 0 60.5 5t50.5 12l12 -64q-25 -8 -55 -14.5t-76 -6.5zM226 -195 q32 20 45.5 38.5t13.5 38.5q0 16 -7 32.5t-17 34.5h77q8 -15 14 -32.5t6 -34.5q1 -33 -23 -65t-83 -57z" />
<glyph unicode="&#x107;" horiz-adv-x="497" d="M201 667l188 128l35 -56l-195 -121zM325 -12q-140 0 -206 67t-66 207q0 73 18 129t52 93.5t81.5 56.5t107.5 19q51 0 88 -11t57 -22l-24 -63q-17 7 -48 17t-73 10q-86 0 -132 -55t-46 -170q0 -51 10 -90t33.5 -65.5t61.5 -40.5t94 -14q36 0 60.5 5t50.5 12l12 -64 q-25 -8 -55 -14.5t-76 -6.5z" />
<glyph unicode="&#x10d;" horiz-adv-x="497" d="M131 735l32 47l130 -85l132 86l32 -47l-165 -112zM325 -12q-140 0 -206 67t-66 207q0 73 18 129t52 93.5t81.5 56.5t107.5 19q51 0 88 -11t57 -22l-24 -63q-17 7 -48 17t-73 10q-86 0 -132 -55t-46 -170q0 -51 10 -90t33.5 -65.5t61.5 -40.5t94 -14q36 0 60.5 5t50.5 12 l12 -64q-25 -8 -55 -14.5t-76 -6.5z" />
<glyph unicode="&#x111;" horiz-adv-x="583" d="M275 673h145v81h79v-81h75v-51h-75v-622h-79v52q-23 -22 -58.5 -41.5t-80.5 -19.5q-37 0 -77 9.5t-73.5 39.5t-55.5 85t-22 146q0 72 20.5 126t56 90t82.5 54.5t100 18.5q19 0 33 -0.5t26 -2t23.5 -4.5t25.5 -7v76h-145v51zM288 58q20 0 40 7t37.5 16.5t32 20t22.5 16.5 v360q-19 6 -43 11.5t-65 5.5q-49 0 -83 -19.5t-55.5 -51t-31 -72.5t-9.5 -84q0 -110 43 -160t112 -50z" />
<glyph unicode="&#xe9;" horiz-adv-x="546" d="M197 667l188 128l35 -56l-195 -121zM313 -12q-60 0 -107.5 13.5t-81.5 45.5t-52 84.5t-18 130.5q0 80 18.5 136.5t50.5 92.5t75.5 52.5t93.5 16.5q105 0 153.5 -68t48.5 -205v-29h-360q1 -63 16.5 -102.5t41.5 -61.5t60.5 -30t73.5 -8q40 0 73.5 6.5t71.5 18.5l14 -64 q-31 -13 -75.5 -21t-96.5 -8zM412 317q0 84 -30.5 132.5t-97.5 48.5q-60 0 -101 -44.5t-48 -136.5h277z" />
<glyph unicode="&#xe8;" horiz-adv-x="546" d="M313 -12q-60 0 -107.5 13.5t-81.5 45.5t-52 84.5t-18 130.5q0 80 18.5 136.5t50.5 92.5t75.5 52.5t93.5 16.5q105 0 153.5 -68t48.5 -205v-29h-360q1 -63 16.5 -102.5t41.5 -61.5t60.5 -30t73.5 -8q40 0 73.5 6.5t71.5 18.5l14 -64q-31 -13 -75.5 -21t-96.5 -8zM412 317 q0 84 -30.5 132.5t-97.5 48.5q-60 0 -101 -44.5t-48 -136.5h277zM154 739l35 60l189 -130l-31 -50z" />
<glyph unicode="&#xea;" horiz-adv-x="546" d="M278 712l-129 -84l-34 46l166 113l152 -111l-35 -47zM313 -12q-60 0 -107.5 13.5t-81.5 45.5t-52 84.5t-18 130.5q0 80 18.5 136.5t50.5 92.5t75.5 52.5t93.5 16.5q105 0 153.5 -68t48.5 -205v-29h-360q1 -63 16.5 -102.5t41.5 -61.5t60.5 -30t73.5 -8q40 0 73.5 6.5 t71.5 18.5l14 -64q-31 -13 -75.5 -21t-96.5 -8zM412 317q0 84 -30.5 132.5t-97.5 48.5q-60 0 -101 -44.5t-48 -136.5h277z" />
<glyph unicode="&#xeb;" horiz-adv-x="546" d="M125 716l56 56l56 -56l-56 -57zM322 716l56 56l56 -56l-56 -57zM313 -12q-60 0 -107.5 13.5t-81.5 45.5t-52 84.5t-18 130.5q0 80 18.5 136.5t50.5 92.5t75.5 52.5t93.5 16.5q105 0 153.5 -68t48.5 -205v-29h-360q1 -63 16.5 -102.5t41.5 -61.5t60.5 -30t73.5 -8 q40 0 73.5 6.5t71.5 18.5l14 -64q-31 -13 -75.5 -21t-96.5 -8zM412 317q0 84 -30.5 132.5t-97.5 48.5q-60 0 -101 -44.5t-48 -136.5h277z" />
<glyph unicode="&#xed;" horiz-adv-x="249" d="M42 667l188 128l35 -56l-195 -121zM84 546h80v-546h-80v546z" />
<glyph unicode="&#xec;" horiz-adv-x="249" d="M84 546h80v-546h-80v546zM-27 739l35 60l189 -130l-31 -50z" />
<glyph unicode="&#xee;" horiz-adv-x="249" d="M126 712l-129 -84l-34 46l166 113l152 -111l-35 -47zM84 546h80v-546h-80v546z" />
<glyph unicode="&#xef;" horiz-adv-x="249" d="M-29 716l56 56l56 -56l-56 -57zM168 716l56 56l56 -56l-56 -57zM84 546h80v-546h-80v546z" />
<glyph unicode="&#x140;" horiz-adv-x="346" d="M214 357l63 64l65 -64l-65 -66zM84 754h79v-754h-79v754z" />
<glyph unicode="&#xf1;" horiz-adv-x="602" d="M367 645q-18 0 -33.5 6t-30 12.5t-29.5 12.5t-31 6q-23 0 -37.5 -5.5t-31.5 -19.5l-31 46q4 4 12 11.5t21 15t31 13t41 5.5q20 0 36 -6t30.5 -12.5t28 -12.5t28.5 -6q26 0 43 10t27 18l31 -44l-12.5 -12.5t-21.5 -16.5t-31 -14.5t-40 -6.5zM84 546h79v-62 q21 16 42.5 29.5t44.5 24t49.5 16.5t58.5 6q58 0 91 -19.5t49.5 -50t20.5 -67.5t4 -71v-352h-77v337q0 35 -4 63.5t-15.5 48.5t-32.5 30.5t-56 10.5q-53 0 -95.5 -20.5t-79.5 -46.5v-423h-79v546z" />
<glyph unicode="&#xf3;" horiz-adv-x="598" d="M203 667l188 128l35 -56l-195 -121zM296 -12q-113 0 -178 72t-65 207q0 71 18.5 125.5t51.5 92t80 56.5t104 19q117 0 177.5 -74t60.5 -210q0 -74 -19 -128t-52 -89.5t-78.5 -53t-99.5 -17.5zM301 53q49 0 81 19t50.5 50t25.5 70t7 79q0 39 -7 78.5t-25 72t-50 53 t-82 20.5t-82.5 -20.5t-51.5 -52.5t-26.5 -72t-7.5 -79q0 -42 8 -81.5t27.5 -69.5t52 -48.5t80.5 -18.5z" />
<glyph unicode="&#xf2;" horiz-adv-x="598" d="M175 739l35 60l189 -130l-31 -50zM296 -12q-113 0 -178 72t-65 207q0 71 18.5 125.5t51.5 92t80 56.5t104 19q117 0 177.5 -74t60.5 -210q0 -74 -19 -128t-52 -89.5t-78.5 -53t-99.5 -17.5zM301 53q49 0 81 19t50.5 50t25.5 70t7 79q0 39 -7 78.5t-25 72t-50 53t-82 20.5 t-82.5 -20.5t-51.5 -52.5t-26.5 -72t-7.5 -79q0 -42 8 -81.5t27.5 -69.5t52 -48.5t80.5 -18.5z" />
<glyph unicode="&#xf4;" horiz-adv-x="598" d="M298 712l-129 -84l-34 46l166 113l152 -111l-35 -47zM296 -12q-113 0 -178 72t-65 207q0 71 18.5 125.5t51.5 92t80 56.5t104 19q117 0 177.5 -74t60.5 -210q0 -74 -19 -128t-52 -89.5t-78.5 -53t-99.5 -17.5zM301 53q49 0 81 19t50.5 50t25.5 70t7 79q0 39 -7 78.5 t-25 72t-50 53t-82 20.5t-82.5 -20.5t-51.5 -52.5t-26.5 -72t-7.5 -79q0 -42 8 -81.5t27.5 -69.5t52 -48.5t80.5 -18.5z" />
<glyph unicode="&#xf6;" horiz-adv-x="598" d="M144 716l56 56l56 -56l-56 -57zM341 716l56 56l56 -56l-56 -57zM296 -12q-113 0 -178 72t-65 207q0 71 18.5 125.5t51.5 92t80 56.5t104 19q117 0 177.5 -74t60.5 -210q0 -74 -19 -128t-52 -89.5t-78.5 -53t-99.5 -17.5zM301 53q49 0 81 19t50.5 50t25.5 70t7 79 q0 39 -7 78.5t-25 72t-50 53t-82 20.5t-82.5 -20.5t-51.5 -52.5t-26.5 -72t-7.5 -79q0 -42 8 -81.5t27.5 -69.5t52 -48.5t80.5 -18.5z" />
<glyph unicode="&#xf5;" horiz-adv-x="598" d="M296 -12q-113 0 -178 72t-65 207q0 71 18.5 125.5t51.5 92t80 56.5t104 19q117 0 177.5 -74t60.5 -210q0 -74 -19 -128t-52 -89.5t-78.5 -53t-99.5 -17.5zM301 53q49 0 81 19t50.5 50t25.5 70t7 79q0 39 -7 78.5t-25 72t-50 53t-82 20.5t-82.5 -20.5t-51.5 -52.5 t-26.5 -72t-7.5 -79q0 -42 8 -81.5t27.5 -69.5t52 -48.5t80.5 -18.5zM357 645q-18 0 -33.5 6t-30 12.5t-29.5 12.5t-31 6q-23 0 -37.5 -5.5t-31.5 -19.5l-31 46q4 4 12 11.5t21 15t31 13t41 5.5q20 0 36 -6t30.5 -12.5t28 -12.5t28.5 -6q26 0 43 10t27 18l31 -44 l-12.5 -12.5t-21.5 -16.5t-31 -14.5t-40 -6.5z" />
<glyph unicode="&#xf8;" horiz-adv-x="622" d="M307 -12q-100 0 -163 57l-66 -76l-35 34l69 79q-48 71 -48 185q0 71 18.5 125.5t51.5 92t80 56.5t104 19q51 0 91 -14.5t69 -41.5l59 68l36 -33l-64 -73q47 -73 47 -190q0 -74 -19 -128t-52 -89.5t-78.5 -53t-99.5 -17.5zM312 53q49 0 81 19t50.5 50t25.5 70t7 79 q0 33 -5 67t-17 64l-261 -300q20 -23 49 -36t70 -13zM144 271q0 -34 5 -66t17 -60l261 301q-19 23 -47 36t-68 13q-50 0 -82.5 -20.5t-51.5 -52.5t-26.5 -72t-7.5 -79z" />
<glyph unicode="&#x1ff;" horiz-adv-x="622" d="M307 -12q-100 0 -163 57l-66 -76l-35 34l69 79q-48 71 -48 185q0 71 18.5 125.5t51.5 92t80 56.5t104 19q51 0 91 -14.5t69 -41.5l59 68l36 -33l-64 -73q47 -73 47 -190q0 -74 -19 -128t-52 -89.5t-78.5 -53t-99.5 -17.5zM312 53q49 0 81 19t50.5 50t25.5 70t7 79 q0 33 -5 67t-17 64l-261 -300q20 -23 49 -36t70 -13zM144 271q0 -34 5 -66t17 -60l261 301q-19 23 -47 36t-68 13q-50 0 -82.5 -20.5t-51.5 -52.5t-26.5 -72t-7.5 -79zM218 667l188 128l35 -56l-195 -121z" />
<glyph unicode="&#x161;" horiz-adv-x="448" d="M60 735l32 47l130 -85l132 86l32 -47l-165 -112zM195 -12q-38 0 -80.5 7t-72.5 17l13 67q36 -11 73.5 -17.5t72.5 -6.5q60 0 95.5 22t35.5 63q0 30 -20.5 49.5t-51 34t-66 28t-66 33t-51 48.5t-20.5 74q0 37 14.5 66t39.5 48t59 29t72 10q32 0 70 -6.5t67 -19.5l-18 -63 q-26 11 -58 17t-62 6q-57 0 -82 -23t-25 -57q0 -31 20 -50.5t50.5 -34.5t66 -28.5t66 -33t50.5 -48.5t20 -74q0 -44 -19.5 -74t-50 -48.5t-68.5 -26.5t-74 -8z" />
<glyph unicode="&#xdf;" horiz-adv-x="589" d="M84 559q0 56 14 95.5t39.5 64t61 35.5t79.5 11q24 0 54.5 -6t57.5 -22.5t45 -46t18 -76.5q0 -38 -18 -68t-39.5 -55.5t-39.5 -48t-18 -46.5q0 -29 16.5 -49.5t41 -36.5t53 -31.5t53 -34.5t41 -44.5t16.5 -62.5q0 -42 -15.5 -70t-40.5 -45t-55 -24t-60 -7q-41 0 -80.5 5.5 t-67.5 16.5l15 64q26 -8 56 -13.5t62 -5.5q49 0 80 15.5t31 54.5q0 28 -16.5 47t-41 34.5t-53.5 30t-53.5 34.5t-41 48t-16.5 70q0 34 17 60.5t37 51.5t37 51t17 60q0 44 -28.5 63.5t-66.5 19.5q-35 0 -57 -10.5t-34 -29t-16.5 -44.5t-4.5 -56v-763h-79v764z" />
<glyph unicode="&#xfa;" horiz-adv-x="599" d="M225 668l188 128l35 -56l-195 -121zM241 -12q-56 0 -88.5 20t-48.5 50.5t-20 67.5t-4 72v348h78v-332q0 -32 2.5 -60t13 -49t31.5 -33t58 -12q26 0 51 6.5t47.5 16.5t42 22t35.5 23v418h76v-546h-76v64q-20 -14 -40 -27.5t-44 -24.5t-52 -17.5t-62 -6.5z" />
<glyph unicode="&#xf9;" horiz-adv-x="599" d="M241 -12q-56 0 -88.5 20t-48.5 50.5t-20 67.5t-4 72v348h78v-332q0 -32 2.5 -60t13 -49t31.5 -33t58 -12q26 0 51 6.5t47.5 16.5t42 22t35.5 23v418h76v-546h-76v64q-20 -14 -40 -27.5t-44 -24.5t-52 -17.5t-62 -6.5zM156 739l35 60l189 -130l-31 -50z" />
<glyph unicode="&#xfb;" horiz-adv-x="599" d="M300 712l-129 -84l-34 46l166 113l152 -111l-35 -47zM241 -12q-56 0 -88.5 20t-48.5 50.5t-20 67.5t-4 72v348h78v-332q0 -32 2.5 -60t13 -49t31.5 -33t58 -12q26 0 51 6.5t47.5 16.5t42 22t35.5 23v418h76v-546h-76v64q-20 -14 -40 -27.5t-44 -24.5t-52 -17.5t-62 -6.5z " />
<glyph unicode="&#xfc;" horiz-adv-x="599" d="M144 716l56 56l56 -56l-56 -57zM341 716l56 56l56 -56l-56 -57zM241 -12q-56 0 -88.5 20t-48.5 50.5t-20 67.5t-4 72v348h78v-332q0 -32 2.5 -60t13 -49t31.5 -33t58 -12q26 0 51 6.5t47.5 16.5t42 22t35.5 23v418h76v-546h-76v64q-20 -14 -40 -27.5t-44 -24.5t-52 -17.5 t-62 -6.5z" />
<glyph unicode="&#xff;" horiz-adv-x="511" d="M99 716l56 56l56 -56l-56 -57zM296 716l56 56l56 -56l-56 -57zM230 0h-37l-176 546h86l118 -390l31 -98l32 96l134 392h81l-267 -766h-76z" />
<glyph unicode="&#xfd;" horiz-adv-x="511" d="M230 0h-37l-176 546h86l118 -390l31 -98l32 96l134 392h81l-267 -766h-76zM181 667l188 128l35 -56l-195 -121z" />
<glyph unicode="&#x17e;" horiz-adv-x="500" d="M84 735l32 47l130 -85l132 86l32 -47l-165 -112zM37 68l323 409h-297v69h387v-64l-325 -413h329v-69h-417v68z" />
<glyph unicode="&#xfe;" horiz-adv-x="590" d="M84 754h77v-253q27 20 68 37t85 17q107 0 164.5 -69t57.5 -197q0 -86 -21.5 -143t-58 -92t-84 -49.5t-98.5 -14.5q-35 0 -64 2.5t-49 5.5v-218h-77v974zM277 55q45 0 78 16.5t55.5 45t33.5 68t11 84.5q0 43 -6.5 82.5t-23.5 69.5t-47.5 48t-79.5 18q-20 0 -41.5 -6 t-40.5 -14t-34 -16.5t-21 -12.5v-372q19 -2 43.5 -6.5t72.5 -4.5z" />
<glyph unicode="&#xf0;" horiz-adv-x="612" d="M297 -9q-114 0 -178.5 69.5t-64.5 204.5q0 69 19 122t52 88t78.5 53t98.5 18q36 0 65.5 -9t53.5 -26q-20 40 -46 72t-52 55l-95 -65l-32 40l84 58q-23 17 -44 28t-38 19l44 53q18 -8 44 -21.5t55 -33.5l96 66l31 -40l-84 -58q31 -27 60.5 -63.5t52 -85.5t36 -111.5 t13.5 -141.5q0 -65 -15.5 -119t-46.5 -92t-78 -59t-109 -21zM303 56q49 0 80.5 18t50 48t25.5 68t7 79q0 40 -7.5 78.5t-26.5 68t-51.5 47.5t-81.5 18t-81 -18.5t-50.5 -48.5t-26 -67.5t-7.5 -76.5q0 -43 8.5 -81.5t28 -68t52 -47t80.5 -17.5z" />
<glyph unicode="&#xe6;" horiz-adv-x="869" d="M637 -9q-77 0 -132 22t-88 73q-11 -8 -32.5 -24t-50.5 -31.5t-64 -27t-72 -11.5q-73 0 -114 39.5t-41 114.5q0 50 20 81.5t51 49.5t68 24.5t70 7.5q34 0 62 1q23 1 44 1.5t23 0.5v75q0 34 -8 54.5t-25 31.5t-43.5 14.5t-62.5 3.5q-19 0 -39 -3t-39 -7t-34 -8t-23 -6 l-17 60q9 4 26.5 9.5t40 10.5t50.5 8.5t58 3.5q29 0 55.5 -3t49.5 -12t41 -24t30 -39q33 42 79 60t103 18q97 0 145.5 -66t48.5 -195v-29l-360 -14q1 -64 17 -102.5t43 -59.5t63.5 -27.5t80.5 -6.5q15 0 34.5 2.5t38.5 5.5t35.5 6t25.5 5l13 -63q-23 -9 -67 -16.5t-104 -7.5 zM217 57q18 0 43 8t50.5 19.5t49 24t37.5 21.5q-8 24 -12 57t-6 67l-126 -4q-72 -2 -103.5 -30t-31.5 -66q0 -29 7.5 -48t20.5 -30t31.5 -15t39.5 -4zM735 329q0 77 -32 124t-92 47q-28 0 -54 -10t-46.5 -32.5t-34 -57.5t-16.5 -84z" />
<glyph unicode="&#x1fd;" horiz-adv-x="869" d="M354 667l188 128l35 -56l-195 -121zM637 -9q-77 0 -132 22t-88 73q-11 -8 -32.5 -24t-50.5 -31.5t-64 -27t-72 -11.5q-73 0 -114 39.5t-41 114.5q0 50 20 81.5t51 49.5t68 24.5t70 7.5q34 0 62 1q23 1 44 1.5t23 0.5v75q0 34 -8 54.5t-25 31.5t-43.5 14.5t-62.5 3.5 q-19 0 -39 -3t-39 -7t-34 -8t-23 -6l-17 60q9 4 26.5 9.5t40 10.5t50.5 8.5t58 3.5q29 0 55.5 -3t49.5 -12t41 -24t30 -39q33 42 79 60t103 18q97 0 145.5 -66t48.5 -195v-29l-360 -14q1 -64 17 -102.5t43 -59.5t63.5 -27.5t80.5 -6.5q15 0 34.5 2.5t38.5 5.5t35.5 6t25.5 5 l13 -63q-23 -9 -67 -16.5t-104 -7.5zM217 57q18 0 43 8t50.5 19.5t49 24t37.5 21.5q-8 24 -12 57t-6 67l-126 -4q-72 -2 -103.5 -30t-31.5 -66q0 -29 7.5 -48t20.5 -30t31.5 -15t39.5 -4zM735 329q0 77 -32 124t-92 47q-28 0 -54 -10t-46.5 -32.5t-34 -57.5t-16.5 -84z" />
<glyph unicode="&#x153;" horiz-adv-x="957" d="M296 -12q-114 0 -178.5 72t-64.5 207q0 71 18.5 125.5t52 92t79.5 56.5t100 19q74 0 124.5 -29.5t77.5 -86.5q31 63 84.5 89.5t119.5 26.5q102 0 149 -68t47 -205v-29h-361q1 -65 16.5 -104.5t42 -61t62.5 -29t80 -7.5q15 0 34.5 2.5t39 6t36.5 7.5t26 7l14 -65 q-14 -5 -59.5 -15t-112.5 -10q-79 0 -136 25t-87 87q-32 -57 -84.5 -85t-119.5 -28zM302 53q49 0 80.5 19t50 50t25.5 70.5t7 80.5q0 38 -7 77.5t-25 71.5t-50 52.5t-83 20.5q-50 0 -82 -20.5t-51 -52.5t-26.5 -71.5t-7.5 -78.5q0 -43 8.5 -82.5t28 -70t52 -48.5t80.5 -18z M822 317q0 84 -31 134t-95 50q-62 0 -102.5 -46t-48.5 -138h277z" />
<glyph unicode="&#x133;" horiz-adv-x="522" d="M253 -224q-22 0 -40.5 3.5t-29.5 8.5l14 64q11 -3 27.5 -5.5t29.5 -2.5q30 0 50 10t32 28t16.5 43.5t4.5 56.5v564h80v-565q0 -60 -14.5 -99.5t-39 -63t-58 -33t-72.5 -9.5zM84 546h80v-546h-80v546zM59 715l65 66l67 -66l-67 -67zM332 715l65 66l67 -66l-67 -67z" />
<glyph unicode="," horiz-adv-x="219" d="M43 -125q11 27 18.5 67t7.5 73v68h82v-37q0 -61 -12 -100.5t-28 -70.5h-68v0z" />
<glyph unicode="." horiz-adv-x="232" d="M69 94h95v-94h-95v94z" />
<glyph unicode=":" horiz-adv-x="294" d="M99 94h95v-94h-95v94zM99 546h95v-94h-95v94z" />
<glyph unicode=";" horiz-adv-x="292" d="M79 -125q9 25 17.5 61.5t8.5 70.5v76h84v-43q0 -59 -12.5 -97.5t-29.5 -67.5h-68zM97 546h95v-94h-95v94z" />
<glyph unicode="?" horiz-adv-x="377" d="M105 163q-10 18 -18.5 43t-8.5 50q0 33 12.5 59.5t32 48t41.5 40.5t41.5 36.5t32 36t12.5 39.5q0 33 -17.5 55.5t-45 37t-62.5 22.5t-70 11l16 68q45 -3 91 -14.5t83.5 -34t61.5 -57t24 -83.5q0 -31 -13.5 -56t-33.5 -47t-43 -41.5t-43 -39t-33.5 -40t-13.5 -43.5 q0 -17 6 -38.5t16 -40.5zM92 87h89v-87h-89v87z" />
<glyph unicode="&#xbf;" horiz-adv-x="375" d="M308 -2q-45 3 -91 14t-83 33t-60.5 57t-23.5 86q0 30 13.5 55.5t33.5 47t43 41t43 39t33.5 40t13.5 43.5q0 6 -2.5 17t-6 22t-7.5 22t-7 17l68 13q10 -20 18.5 -46.5t8.5 -44.5q0 -34 -12.5 -60.5t-32 -49t-41.5 -41t-41.5 -36.5t-32 -36.5t-12.5 -40.5q0 -31 17 -53 t45 -36.5t62.5 -23t69.5 -11.5zM200 707h90v-87h-90v87z" />
<glyph unicode="!" horiz-adv-x="288" d="M105 312v395h78v-395l-4 -140h-70zM99 87h90v-87h-90v87z" />
<glyph unicode="&#xa1;" horiz-adv-x="286" d="M104 395l4 140h71l3 -140v-395h-78v395zM99 707h90v-87h-90v87z" />
<glyph unicode="-" horiz-adv-x="489" d="M95 382h298v-68h-298v68z" />
<glyph unicode="&#x2013;" horiz-adv-x="682" d="M95 380h492v-64h-492v64z" />
<glyph unicode="&#x2014;" horiz-adv-x="967" d="M95 380h776v-64h-776v64z" />
<glyph unicode="_" horiz-adv-x="613" d="M55 -96h503v-69h-503v69z" />
<glyph unicode="@" horiz-adv-x="783" d="M366 -71q-151 0 -230 88t-79 247q0 120 33 206t89 140.5t130.5 80.5t157.5 26q59 0 108 -16.5t84 -51t54.5 -88.5t19.5 -130q0 -75 -20 -129t-51.5 -88.5t-71 -50.5t-78.5 -16q-38 0 -57.5 18.5t-17.5 49.5q-9 -11 -23.5 -22t-30.5 -19.5t-32 -13.5t-28 -5q-21 0 -39 6 t-30.5 20.5t-19.5 38.5t-7 61q0 50 14 90.5t39.5 69.5t61.5 44.5t81 15.5q26 0 54.5 -5.5t51.5 -16.5l-27 -227q-2 -20 1.5 -32.5t17.5 -12.5q22 0 47 9.5t46.5 34.5t35.5 68.5t14 110.5q0 63 -15 106.5t-42 69.5t-64 37.5t-80 11.5q-65 0 -125.5 -19.5t-107 -64.5t-74 -118 t-27.5 -179q0 -76 17 -129t49.5 -86.5t78 -48.5t102.5 -15q38 0 79.5 5.5t71.5 12.5l13 -58q-44 -17 -83.5 -21.5t-90.5 -4.5zM337 218q15 0 30.5 6t28.5 14.5t23.5 17.5t16.5 16l21 168q-8 2 -16 3.5t-19 1.5q-32 0 -55.5 -12t-38.5 -33t-22.5 -50t-7.5 -63q0 -41 9.5 -55 t29.5 -14z" />
<glyph unicode="&#x26;" horiz-adv-x="675" d="M246 -8q-34 0 -68.5 8t-62 27.5t-45 52.5t-17.5 82q0 39 10.5 69t28.5 55t43 46.5t54 43.5q-17 40 -27 83.5t-10 87.5q0 31 9.5 60t29.5 51.5t51 36.5t74 14q39 0 66 -11.5t44 -30.5t25 -43.5t8 -51.5q0 -39 -18 -69t-45.5 -54.5t-61.5 -45.5t-65 -41q28 -62 71.5 -113.5 t96.5 -90.5t112.5 -64t121.5 -32l-10 -65q-58 5 -113.5 23t-106.5 48q-20 -17 -39.5 -30.5t-42 -24t-50 -16t-63.5 -5.5zM258 55q40 0 70.5 14t59.5 35q-115 86 -174 212q-38 -31 -62.5 -65.5t-24.5 -82.5q0 -33 12 -55t31 -35t42 -18t46 -5zM246 417q19 13 44 29t47 35 t37 40.5t15 45.5q0 38 -21.5 59.5t-56.5 21.5q-44 0 -67 -25.5t-23 -67.5q0 -34 6.5 -68.5t18.5 -69.5z" />
<glyph unicode="/" horiz-adv-x="430" d="M294 766h73l-232 -828h-74z" />
<glyph unicode="\" horiz-adv-x="430" d="M63 766h73l233 -828h-74z" />
<glyph unicode="|" horiz-adv-x="244" d="M85 754h74v-974h-74v974z" />
<glyph unicode="(" horiz-adv-x="357" d="M269 -152q-42 37 -81 85.5t-69.5 110.5t-48.5 138.5t-18 169.5q0 96 19.5 173t51 137t70 103t76.5 70l43 -48q-32 -28 -64.5 -66.5t-59 -91t-43.5 -121t-17 -156.5q0 -78 14 -144.5t39 -123t58.5 -103t71.5 -84.5z" />
<glyph unicode=")" horiz-adv-x="351" d="M41 -103q39 38 72 84.5t58 103t39 123t14 144.5q0 88 -17 156.5t-43.5 121t-59 91t-64.5 66.5l44 48q37 -27 75.5 -70t70 -103t51 -137t19.5 -173q0 -93 -18 -169.5t-48 -138.5t-69 -110.5t-81 -85.5z" />
<glyph unicode="[" horiz-adv-x="311" d="M85 840h179v-65h-102v-844h102v-65h-179v974z" />
<glyph unicode="]" horiz-adv-x="311" d="M46 -69h103v844h-103v65h180v-974h-180v65z" />
<glyph unicode="{" horiz-adv-x="376" d="M285 -140q-37 0 -70.5 5t-59.5 19.5t-41.5 41.5t-15.5 71q0 7 0.5 14t1.5 15l21 198q2 15 -3.5 31.5t-16.5 30t-27 22.5t-35 9v72q19 0 35 8.5t27 21.5t16.5 29.5t3.5 33.5l-21 206q-1 9 -1.5 18t0.5 17q2 38 17.5 63t40.5 40t58 21t70 6h22v-67h-25q-59 0 -85.5 -24 t-20.5 -79l20 -182q8 -63 -16 -98.5t-67 -46.5v-2q21 -8 38 -19.5t28 -29t16 -41.5t1 -55l-20 -183q-5 -51 22 -75t84 -24h25v-67h-22v0z" />
<glyph unicode="}" horiz-adv-x="377" d="M69 -133v67h24q57 0 84.5 24t22.5 75l-21 183q-7 62 18 96t66 49v2q-44 11 -67.5 46.5t-16.5 98.5l21 182q6 55 -21 79t-86 24h-24v67h22q37 0 70 -6t58 -21t40.5 -40t17.5 -63q1 -8 0.5 -17t-1.5 -18l-22 -206q-2 -17 3.5 -33.5t17 -29.5t27 -21.5t35.5 -8.5v-72 q-20 0 -36 -9t-27 -22.5t-16.5 -30t-3.5 -31.5l22 -198q1 -8 1.5 -15t0.5 -14q0 -44 -15.5 -71t-41.5 -41.5t-59.5 -19.5t-70.5 -5h-22z" />
<glyph unicode="&#xa7;" horiz-adv-x="538" d="M145 -217q-63 0 -114 39l28 66q15 -11 30 -19q13 -7 28 -12.5t29 -5.5q16 0 26 9t16 21.5t8.5 27t2.5 26.5q0 29 -4.5 59.5t-10.5 61.5l-65 352q-5 24 -7.5 49.5t-2.5 50.5q0 61 18 108.5t50.5 79.5t78.5 48.5t102 16.5q85 0 145 -43q-9 -17 -16 -31l-11 -22t-6 -11 q-8 5 -21 12t-29 13t-33.5 10t-34.5 4q-15 0 -24.5 -6.5t-15 -16.5t-7.5 -22.5t-2 -24.5q0 -19 1.5 -38t5.5 -36l72 -365q7 -37 12 -77.5t5 -73.5q0 -53 -18.5 -98.5t-52 -79.5t-80 -53t-103.5 -19zM249 -135q35 27 56 66t21 89q0 26 -3 51.5t-8 51.5l-73 383 q-4 23 -6.5 47.5t-2.5 49.5q0 18 2.5 38t10.5 39q-20 -12 -32 -29.5t-19.5 -37.5t-10 -41.5t-2.5 -40.5q-1 -23 2 -47t6 -44l72 -382q3 -21 6.5 -50.5t3.5 -52.5q0 -32 -6.5 -50t-16.5 -40z" />
<glyph unicode="&#x2022;" horiz-adv-x="394" d="M197 208q-30 0 -56.5 10.5t-46 30t-31 45.5t-11.5 58q0 31 11.5 58t31 46t46 30t56.5 11t56.5 -10.5t46 -29.5t31 -46t11.5 -59q0 -31 -11.5 -57t-31 -45.5t-46 -30.5t-56.5 -11z" />
<glyph unicode="#" horiz-adv-x="642" d="M469 159l-9 -159h-76l9 159h-167l-9 -159h-75l9 159h-87v69h91l14 250h-105v68h109l9 161h76l-9 -161h166l9 161h76l-10 -161h89v-68h-92l-14 -250h106v-69h-110zM244 478l-13 -250h166l14 250h-167z" />
<glyph unicode="%" horiz-adv-x="790" d="M201 387q-31 0 -58.5 9t-48.5 28t-33 49t-12 72q0 41 12.5 72.5t34 53t49.5 32.5t59 11t59 -8t49 -27t33 -50t12 -77q0 -39 -12.5 -70t-33.5 -52t-49.5 -32t-60.5 -11zM201 445q40 0 64.5 28t24.5 79q0 48 -21 77t-65 29q-35 0 -60 -27t-25 -86q0 -100 82 -100zM583 -9 q-31 0 -58.5 9t-48 28t-32.5 49t-12 72q0 41 12.5 72.5t33.5 53t49 32.5t59 11t59 -8t49 -26.5t33.5 -49.5t12.5 -77q0 -40 -12.5 -71t-34 -52t-50 -32t-60.5 -11zM583 50q41 0 65 28t24 79q0 48 -20.5 76.5t-65.5 28.5q-35 0 -59.5 -27t-24.5 -86q0 -49 19.5 -74t61.5 -25z M97 104l534 532l42 -45l-533 -533z" />
<glyph unicode="&#x2030;" horiz-adv-x="1150" d="M201 387q-31 0 -58.5 9t-48.5 28t-33 49t-12 72q0 41 12.5 72.5t34 53t49.5 32.5t59 11t59 -8t49 -27t33 -50t12 -77q0 -39 -12.5 -70t-33.5 -52t-49.5 -32t-60.5 -11zM201 445q40 0 64.5 28t24.5 79q0 48 -21 77t-65 29q-35 0 -60 -27t-25 -86q0 -100 82 -100zM583 -9 q-31 0 -58.5 9t-48 28t-32.5 49t-12 72q0 41 12.5 72.5t33.5 53t49 32.5t59 11t59 -8t49 -26.5t33.5 -49.5t12.5 -77q0 -40 -12.5 -71t-34 -52t-50 -32t-60.5 -11zM583 50q41 0 65 28t24 79q0 48 -20.5 76.5t-65.5 28.5q-35 0 -59.5 -27t-24.5 -86q0 -49 19.5 -74t61.5 -25z M945 -9q-31 0 -58.5 9t-48.5 28t-33 49t-12 72q0 41 12.5 72.5t34 53t49.5 32.5t59 11t59 -8t49 -26.5t33 -49.5t12 -77q0 -40 -12.5 -71t-33.5 -52t-49.5 -32t-60.5 -11zM945 50q40 0 64 28t24 79q0 48 -20.5 76.5t-64.5 28.5q-35 0 -60 -27t-25 -86q0 -49 19.5 -74 t62.5 -25zM97 104l534 532l42 -45l-533 -533z" />
<glyph unicode="&#x2020;" horiz-adv-x="482" d="M207 515l-168 -7v74l167 -6l-7 178h83l-6 -178l167 6v-74l-167 7l6 -515h-82z" />
<glyph unicode="'" horiz-adv-x="191" d="M60 753h72l-7 -238h-61z" />
<glyph unicode="&#x22;" horiz-adv-x="355" d="M60 753h69l-6 -238h-59zM227 753h69l-6 -238h-59z" />
<glyph unicode="&#x201c;" horiz-adv-x="338" d="M57 594q0 59 12 96t29 66h59q-11 -23 -19.5 -58.5t-8.5 -64.5v-78h-72v39zM204 594q0 59 11.5 96t28.5 66h59q-11 -23 -19 -58.5t-8 -64.5v-78h-72v39z" />
<glyph unicode="&#x201d;" horiz-adv-x="338" d="M48 554q10 23 18.5 58.5t8.5 64.5v78h72v-40q0 -59 -11.5 -95.5t-28.5 -65.5h-59zM194 554q11 23 19 58.5t8 64.5v78h72v-40q0 -59 -12 -95.5t-29 -65.5h-58z" />
<glyph unicode="&#x2018;" horiz-adv-x="191" d="M57 594q0 59 12 96t29 66h58q-10 -23 -18.5 -58.5t-8.5 -64.5v-78h-72v39z" />
<glyph unicode="&#x2019;" horiz-adv-x="192" d="M48 554q10 23 18.5 58.5t8.5 64.5v78h72v-40q0 -59 -11.5 -95.5t-28.5 -65.5h-59v0z" />
<glyph unicode="&#x201a;" horiz-adv-x="210" d="M43 -122q9 24 17 59t8 64v79h74v-41q0 -58 -12 -95t-29 -66h-58v0z" />
<glyph unicode="&#x201e;" horiz-adv-x="353" d="M42 -122q10 24 18 59t8 64v79h72v-41q0 -58 -12 -95t-29 -66h-57zM187 -122q11 24 19 59t8 64v79h71v-41q0 -58 -12 -95t-29 -66h-57z" />
<glyph unicode="&#x203a;" horiz-adv-x="271" d="M56 159l86 193l-87 198l59 22l106 -220l-106 -220z" />
<glyph unicode="&#x2039;" horiz-adv-x="270" d="M50 344l106 220l59 -22l-87 -198l86 -195l-58 -25z" />
<glyph unicode="&#xab;" horiz-adv-x="448" d="M50 352l106 220l59 -22l-87 -198l86 -195l-58 -25zM227 352l107 220l58 -22l-87 -198l86 -195l-57 -25z" />
<glyph unicode="&#xbb;" horiz-adv-x="448" d="M56 157l86 195l-87 198l59 22l106 -220l-106 -220zM234 157l85 195l-87 198l59 22l107 -220l-107 -220z" />
<glyph unicode="*" horiz-adv-x="436" d="M47 526l108 44l18 -33l-91 -71zM47 643l36 60l91 -71l-19 -34zM200 522h38l15 -114h-71zM184 762h70l-15 -116h-39zM262 536l21 34l107 -43l-36 -62zM262 632l93 71l35 -60l-108 -43z" />
<glyph unicode="&#xb7;" horiz-adv-x="241" d="M57 357l63 64l65 -64l-65 -66z" />
<glyph unicode="+" horiz-adv-x="582" d="M251 270h-214v66l214 -1v222h69l-2 -223l228 2v-66h-227l1 -216h-69v216z" />
<glyph unicode="&#x3c;" horiz-adv-x="510" d="M47 254v99l403 192v-74l-352 -168l352 -164v-75z" />
<glyph unicode="=" horiz-adv-x="704" d="M105 232h494v-66h-494v66zM105 442h494v-66h-494v66z" />
<glyph unicode="&#x3e;" horiz-adv-x="510" d="M60 139l352 164l-352 168v74l403 -192v-99l-403 -190v75z" />
<glyph unicode="&#x401;" horiz-adv-x="582" d="M151 805l58 58l57 -58l-57 -58zM348 805l57 58l58 -58l-58 -58zM106 707h396v-67h-314v-251h292v-68h-292v-253h337v-68h-419v707z" />
<glyph unicode="&#x402;" horiz-adv-x="755" d="M444 -162q7 5 23 19.5t36.5 37.5t42 54.5t39.5 71.5t29.5 87.5t11.5 102.5q0 73 -37 114t-105 41q-40 0 -89.5 -12t-91.5 -34v-320h-82v637h-210v70h550v-70h-258v-245q47 17 96 29.5t104 12.5q56 0 95 -17.5t64 -47.5t36 -70t11 -84q0 -65 -15.5 -124.5t-43.5 -113.5 t-67.5 -103t-88.5 -94z" />
<glyph unicode="&#x406;" horiz-adv-x="294" d="M106 707h82v-707h-82v707z" />
<glyph unicode="&#x408;" horiz-adv-x="295" d="M-37 -127q45 25 73.5 53.5t44.5 62t21.5 73.5t5.5 89v556h83v-554q0 -57 -7 -107t-27.5 -92.5t-58.5 -77.5t-100 -63z" />
<glyph unicode="&#x409;" horiz-adv-x="993" d="M4 53q40 18 74.5 46.5t50.5 60.5q24 49 42.5 187t30.5 360h378v-640h126q82 0 123 40t41 109q0 41 -14 69t-39 45.5t-59.5 25t-75.5 7.5h-38v69h37q134 0 204.5 -54.5t70.5 -165.5q0 -47 -15.5 -86t-45.5 -67t-73.5 -43.5t-99.5 -15.5h-224v640h-221q-8 -94 -15.5 -174 t-16.5 -145t-20.5 -116.5t-29.5 -88.5q-23 -47 -62 -80.5t-92 -57.5z" />
<glyph unicode="&#x40a;" horiz-adv-x="1024" d="M106 707h82v-298h344v298h83v-640h117q82 0 126.5 36t44.5 102q0 39 -14 65t-38.5 42t-59 22.5t-75.5 6.5h-36v68h35q134 0 204.5 -51.5t70.5 -157.5q0 -44 -18 -81t-51 -63.5t-79 -41t-102 -14.5h-208v341h-344v-341h-82v707z" />
<glyph unicode="&#x40b;" horiz-adv-x="764" d="M221 637h-210v70h550v-70h-258v-245q47 19 95.5 32t97.5 13q58 0 99 -14t66 -39t36.5 -59.5t11.5 -76.5v-248h-83v249q0 41 -16 64.5t-39 35t-49.5 14.5t-48.5 3q-32 0 -79 -11.5t-91 -35.5v-319h-82v637z" />
<glyph unicode="&#x40e;" horiz-adv-x="573" d="M131 63q23 7 43 16t37.5 23t32.5 34.5t28 51.5l14 32h-37l-243 487h91l213 -430l170 430h90l-226 -527q-22 -51 -41.5 -82.5t-41 -51t-46 -31.5t-55.5 -24zM294 759q-53 0 -95.5 22t-72.5 62l42 41q32 -36 66 -47t60 -11t60 11t66 47l41 -41q-29 -40 -71.5 -62t-95.5 -22 z" />
<glyph unicode="&#x40f;" horiz-adv-x="753" d="M336 0h-230v707h82v-639h377v639h82v-707h-229v-153h-82v153z" />
<glyph unicode="&#x410;" d="M290 707h107l257 -707h-89l-94 264h-279l-105 -264h-87zM449 330l-110 319l-122 -319h232z" />
<glyph unicode="&#x411;" horiz-adv-x="626" d="M106 707h424v-67h-342v-573h135q83 0 124 38.5t41 106.5q0 41 -14 68.5t-39 44.5t-60 24.5t-77 7.5h-50v68h50q135 0 206 -52.5t71 -164.5q0 -47 -16 -85t-46 -65.5t-74 -42.5t-100 -15h-233v707z" />
<glyph unicode="&#x412;" horiz-adv-x="636" d="M106 707h193q60 0 103.5 -13.5t71 -37t41 -56t13.5 -71.5q0 -57 -26.5 -97.5t-71.5 -56.5v-3q28 -5 54.5 -17.5t47.5 -33.5t34 -51t13 -69q0 -44 -13.5 -81t-43.5 -63.5t-77.5 -41.5t-115.5 -15h-223v707zM314 68q37 0 69.5 5t57.5 19.5t39.5 39.5t14.5 66q0 72 -53 102 t-143 30h-111v-262h126zM310 396q68 0 101 31t33 89q0 72 -43 99.5t-123 27.5h-90v-247h122z" />
<glyph unicode="&#x413;" horiz-adv-x="528" d="M106 707h416v-67h-334v-640h-82v707z" />
<glyph unicode="&#x414;" horiz-adv-x="725" d="M12 68h61q14 25 26.5 51t23.5 50.5t19.5 47t14.5 40.5q7 20 15.5 60.5t17.5 98t16.5 131.5t12.5 160h371v-639h93v-221h-81v153h-510v-153h-80v221zM507 68v572h-215q-13 -162 -30 -260.5t-25 -128.5q-6 -22 -13 -42t-15.5 -42t-19 -46t-24.5 -53h342z" />
<glyph unicode="&#x415;" horiz-adv-x="582" d="M106 707h396v-67h-314v-251h292v-68h-292v-253h337v-68h-419v707z" />
<glyph unicode="&#x416;" horiz-adv-x="917" d="M298 375l-260 332h102l252 -329v-15l-272 -363h-107zM525 363v15l253 329h101l-260 -332l285 -375h-107zM417 707h83v-707h-83v707z" />
<glyph unicode="&#x417;" horiz-adv-x="553" d="M243 -8q-76 0 -125.5 14.5t-81.5 29.5l29 66q35 -17 79.5 -28t93.5 -11q35 0 66 7t54 22.5t36.5 41t13.5 62.5q0 36 -14 60t-38.5 38.5t-57.5 21t-71 6.5h-74v67h74q69 0 110 34t41 97q0 60 -36.5 91.5t-101.5 31.5q-48 0 -84 -11t-65 -22l-26 59q33 15 77 28.5t106 13.5 q52 0 92 -13.5t67 -36.5t41 -55t14 -69q0 -43 -13 -73.5t-30.5 -51.5t-36 -33t-29.5 -18v-2q12 -3 35.5 -11.5t46.5 -26.5t40.5 -48t17.5 -76q0 -36 -12.5 -72.5t-41.5 -66t-77 -48t-119 -18.5z" />
<glyph unicode="&#x418;" horiz-adv-x="780" d="M106 707h82v-496l-3 -106l63 105l344 497h82v-707h-82v496l3 106l-42 -70l-365 -532h-82v707z" />
<glyph unicode="&#x419;" horiz-adv-x="780" d="M391 759q-53 0 -95.5 22t-72.5 62l42 41q32 -36 66 -47t60 -11t60 11t66 47l41 -41q-29 -40 -71.5 -62t-95.5 -22zM106 707h82v-496l-3 -106l63 105l344 497h82v-707h-82v496l3 106l-42 -70l-365 -532h-82v707z" />
<glyph unicode="&#x41a;" horiz-adv-x="628" d="M214 370v15l280 322h104l-293 -327l313 -380h-108zM106 707h82v-707h-82v707z" />
<glyph unicode="&#x41b;" horiz-adv-x="686" d="M4 53q40 18 74.5 46.5t50.5 60.5q24 49 42.5 187t30.5 360h378v-707h-82v640h-221q-17 -189 -32 -319t-50 -205q-23 -47 -62 -80.5t-92 -57.5z" />
<glyph unicode="&#x41c;" horiz-adv-x="942" d="M106 707h111l242 -658l272 658h105v-707h-83v475l4 109h-3l-238 -584h-119l-211 586h-3l5 -98v-488h-82v707z" />
<glyph unicode="&#x41d;" horiz-adv-x="764" d="M106 707h82v-318h388v318h82v-707h-82v321h-388v-321h-82v707z" />
<glyph unicode="&#x41e;" horiz-adv-x="828" d="M406 -12q-83 0 -147 27t-108.5 75.5t-67.5 116t-23 148.5q0 83 25.5 150t73 114t114 72.5t147.5 25.5q85 0 150.5 -28t109 -77t66 -115.5t22.5 -143.5q0 -81 -25 -148t-71.5 -115.5t-113.5 -75t-152 -26.5zM409 56q70 0 122 23t86.5 63t51 94.5t16.5 117.5t-17.5 117 t-52 93.5t-84.5 62t-115 22.5q-68 0 -119.5 -22.5t-86 -62t-51.5 -93t-17 -115.5q0 -60 16.5 -114.5t50 -96t83.5 -65.5t117 -24z" />
<glyph unicode="&#x41f;" horiz-adv-x="754" d="M106 707h542v-707h-82v639h-378v-639h-82v707z" />
<glyph unicode="&#x420;" horiz-adv-x="603" d="M106 707h230q106 0 167.5 -56.5t61.5 -164.5q0 -47 -16.5 -89t-51 -73.5t-87.5 -50t-126 -18.5h-33v69h39q42 0 76.5 9t59 27.5t38.5 48.5t14 72q0 81 -40 120t-124 39h-126v-640h-82v707z" />
<glyph unicode="&#x421;" horiz-adv-x="677" d="M427 -12q-88 0 -156 26.5t-115 74.5t-71.5 114.5t-24.5 145.5q0 82 24.5 150t71.5 116.5t114 75t153 26.5q78 0 126.5 -13t78.5 -27l-25 -66q-19 7 -38 13t-40 10.5t-45.5 7.5t-54.5 3q-56 0 -106.5 -15.5t-89 -50t-61.5 -89t-23 -131.5q0 -79 24 -135.5t64.5 -92.5 t94.5 -52.5t115 -16.5q50 0 91.5 7t74.5 19l20 -66q-17 -6 -36.5 -12.5t-43.5 -11t-54 -7.5t-68 -3z" />
<glyph unicode="&#x422;" horiz-adv-x="584" d="M251 637h-242v70h566v-70h-242v-637h-82v637z" />
<glyph unicode="&#x423;" horiz-adv-x="573" d="M131 63q23 7 43 16t37.5 23t32.5 34.5t28 51.5l14 32h-37l-243 487h91l213 -430l170 430h90l-226 -527q-22 -51 -41.5 -82.5t-41 -51t-46 -31.5t-55.5 -24z" />
<glyph unicode="&#x424;" horiz-adv-x="804" d="M361 85q-69 0 -127 17.5t-100 53.5t-65.5 90t-23.5 127t23.5 127t65.5 90t100 53.5t127 17.5v76h82v-76q69 0 127 -17.5t100 -53.5t65.5 -90t23.5 -127t-23.5 -127t-65.5 -90t-100 -53.5t-127 -17.5v-85h-82v85zM443 151q109 0 171 57t62 165q0 109 -62 165.5t-171 56.5 v-444zM361 595q-109 0 -172 -56.5t-63 -165.5q0 -108 63 -165t172 -57v444z" />
<glyph unicode="&#x425;" horiz-adv-x="609" d="M259 374l-206 333h94l161 -267l172 267h89l-218 -331l234 -376h-96l-186 310l-199 -310h-94z" />
<glyph unicode="&#x426;" horiz-adv-x="775" d="M652 0h-546v707h82v-639h369v639h82v-639h93v-221h-80v153z" />
<glyph unicode="&#x427;" horiz-adv-x="653" d="M465 323q-47 -19 -101 -30.5t-102 -11.5q-64 0 -104.5 15.5t-64 41.5t-32.5 59.5t-9 69.5v240h82v-241q0 -41 16.5 -64.5t40.5 -35t51.5 -14.5t49.5 -3q32 0 80.5 11.5t92.5 35.5v311h82v-707h-82v323z" />
<glyph unicode="&#x428;" horiz-adv-x="1010" d="M106 707h82v-639h276v639h82v-639h275v639h83v-707h-798v707z" />
<glyph unicode="&#x429;" horiz-adv-x="1039" d="M916 0h-810v707h82v-639h276v639h82v-639h275v639h83v-639h93v-221h-81v153z" />
<glyph unicode="&#x42a;" horiz-adv-x="703" d="M207 638h-195v69h278v-640h126q82 0 123 40t41 109q0 41 -14 69t-39 45.5t-59.5 25t-75.5 7.5h-41v69h40q134 0 204.5 -54.5t70.5 -165.5q0 -47 -15.5 -86t-45.5 -67t-73.5 -43.5t-99.5 -15.5h-225v638z" />
<glyph unicode="&#x42b;" horiz-adv-x="863" d="M675 707h82v-707h-82v707zM106 707h83v-640h126q82 0 122.5 40.5t40.5 109.5q0 41 -14 69t-38.5 45t-59 24.5t-76.5 7.5h-37v69h37q134 0 204.5 -54t70.5 -165q0 -47 -15.5 -86t-45.5 -67t-73.5 -44t-99.5 -16h-225v707z" />
<glyph unicode="&#x42c;" horiz-adv-x="602" d="M106 707h83v-640h126q82 0 122.5 40.5t40.5 109.5q0 41 -14 69t-38.5 45t-59 24.5t-76.5 7.5h-37v69h37q134 0 204.5 -54t70.5 -165q0 -47 -15.5 -86t-45.5 -67t-73.5 -44t-99.5 -16h-225v707z" />
<glyph unicode="&#x42d;" horiz-adv-x="677" d="M251 -10q-44 0 -77.5 3t-58.5 7.5t-41.5 9.5t-26.5 9l21 66q29 -9 72 -16.5t93 -7.5q58 0 109.5 15t91.5 46.5t65.5 81t30.5 118.5h-373v67h373q-5 69 -29.5 117.5t-62 79t-85.5 44t-100 13.5q-74 0 -116 -10.5t-63 -17.5l-23 66q6 3 20.5 8.5t39.5 11t60.5 10t83.5 4.5 q87 0 154.5 -24.5t113.5 -71t70 -112.5t24 -150q0 -79 -24.5 -146.5t-71 -116.5t-114.5 -76.5t-156 -27.5z" />
<glyph unicode="&#x42e;" horiz-adv-x="1097" d="M674 -12q-78 0 -140 24t-106 68t-69.5 105.5t-29.5 135.5h-141v-321h-82v707h82v-318h142q5 76 33.5 137t76 103.5t112 65t141.5 22.5q85 0 149.5 -27.5t107.5 -76.5t64.5 -115.5t21.5 -144.5q0 -82 -25 -149t-71.5 -115t-113.5 -74.5t-152 -26.5zM677 56q70 0 122 23 t86.5 63t51 94.5t16.5 117.5t-17.5 117t-51.5 93.5t-84.5 62t-115.5 22.5q-68 0 -119.5 -22.5t-86 -62t-51.5 -93t-17 -115.5q0 -60 16.5 -114.5t50 -96t83.5 -65.5t117 -24z" />
<glyph unicode="&#x42f;" horiz-adv-x="661" d="M28 56q25 7 43.5 15.5t34 23t31 37t35.5 57.5l65 113q-67 17 -104 66.5t-37 121.5q0 52 17 92.5t48 68t72.5 42t91.5 14.5h230v-707h-83v281h-95q-32 0 -59 3l-86 -152q-39 -69 -81.5 -102.5t-106.5 -40.5zM472 347v293h-123q-79 0 -123 -37.5t-44 -112.5q0 -40 14 -67 t39 -44t60 -24.5t76 -7.5h101z" />
<glyph unicode="&#x430;" horiz-adv-x="552" d="M206 -9q-75 0 -119 39.5t-44 114.5q0 51 20 83t51 50t68 25t70 8l130 2v70q0 33 -8 54t-23.5 33t-39.5 16.5t-56 4.5q-45 0 -79.5 -7t-68.5 -20l-18 62q32 14 76.5 24t100.5 10q90 0 141.5 -35.5t51.5 -115.5v-302q0 -15 5.5 -25t14 -15.5t19 -7.5t20.5 -2l-3 -61 q-10 -2 -22 -2q-18 0 -35.5 4t-32 12t-24.5 21.5t-13 31.5q-10 -8 -26.5 -20t-39.5 -23.5t-52 -20t-64 -8.5zM224 55q45 0 86 19t72 42v142l-131 -5q-64 -2 -98 -29.5t-34 -75.5t30 -70.5t75 -22.5z" />
<glyph unicode="&#x431;" horiz-adv-x="608" d="M301 -9q-55 0 -98.5 18t-73.5 57t-45.5 99.5t-15.5 144.5q0 40 4 90.5t13 99t23.5 90t35.5 62.5q20 20 55 36.5t82.5 30.5t104.5 26.5t121 25.5l14 -73q-57 -11 -110 -21t-96 -21t-73.5 -23t-42.5 -25q-11 -12 -19 -30.5t-13.5 -39.5t-9 -43t-6.5 -41q35 20 83 36.5 t106 16.5q48 0 87 -12.5t67 -40.5t43.5 -72.5t15.5 -108.5q0 -73 -19.5 -126t-53 -87.5t-79.5 -51.5t-100 -17zM307 56q49 0 81.5 19t51.5 49.5t26.5 69t7.5 77.5q0 36 -8 67.5t-26 55t-46.5 37t-68.5 13.5q-54 0 -94.5 -16t-82.5 -38q-1 -15 -1.5 -32t-0.5 -32 q0 -138 39 -204t122 -66z" />
<glyph unicode="&#x432;" horiz-adv-x="546" d="M84 546h198q91 0 137.5 -36.5t46.5 -100.5q0 -45 -22.5 -76.5t-56.5 -44.5q21 -3 40.5 -13t34.5 -27t24 -40t9 -51q0 -70 -51 -113.5t-152 -43.5h-208v546zM274 65q27 0 52 3.5t44.5 13.5t31.5 27.5t12 46.5q0 28 -10.5 46.5t-30.5 29.5t-49 15.5t-66 4.5h-95v-187h111z M274 310q60 0 87 24t27 65q0 48 -34.5 65t-94.5 17h-96v-171h111z" />
<glyph unicode="&#x433;" horiz-adv-x="436" d="M84 546h340v-67h-261v-479h-79v546z" />
<glyph unicode="&#x434;" horiz-adv-x="618" d="M17 66h54q13 21 23 41t18.5 40.5t15 42t14.5 47.5q4 16 9.5 48.5t10.5 74.5t8.5 90t5.5 96h329v-480h78v-213h-74v147h-418v-147h-74v213zM427 66v414h-181q-9 -98 -17 -164.5t-19 -110.5q-9 -35 -21 -66.5t-32 -72.5h270z" />
<glyph unicode="&#x435;" horiz-adv-x="546" d="M313 -12q-60 0 -107.5 13.5t-81.5 45.5t-52 84.5t-18 130.5q0 80 18.5 136.5t50.5 92.5t75.5 52.5t93.5 16.5q105 0 153.5 -68t48.5 -205v-29h-360q1 -63 16.5 -102.5t41.5 -61.5t60.5 -30t73.5 -8q40 0 73.5 6.5t71.5 18.5l14 -64q-31 -13 -75.5 -21t-96.5 -8zM412 317 q0 84 -30.5 132.5t-97.5 48.5q-60 0 -101 -44.5t-48 -136.5h277z" />
<glyph unicode="&#x436;" horiz-adv-x="771" d="M733 -8q-14 1 -29.5 4t-34 13.5t-40 30.5t-46.5 53l-144 189l206 264h91l-206 -260l99 -133q36 -48 68 -71.5t54 -30.5zM20 51q22 7 54 30.5t68 71.5l100 133l-207 260h91l206 -264l-144 -189q-26 -33 -47 -53t-39 -30.5t-34 -13.5t-30 -4zM346 546h79v-546h-79v546z" />
<glyph unicode="&#x437;" horiz-adv-x="460" d="M209 -9q-46 0 -91 9.5t-87 30.5l26 63q33 -17 70.5 -27t78.5 -10q25 0 46.5 6t38 18t26 31t9.5 45q0 27 -11 44.5t-29.5 28t-43 15t-51.5 4.5h-59v62h58q31 0 53 8.5t35.5 22.5t19.5 31t6 34q0 37 -25 61t-77 24q-39 0 -70 -8.5t-57 -19.5l-20 59q34 17 76.5 26t81.5 9 q46 0 78.5 -12t53 -31.5t30 -44.5t9.5 -50q0 -50 -25.5 -83.5t-61.5 -48.5q19 -4 38.5 -13.5t36 -26t27 -40t10.5 -55.5q0 -29 -10.5 -57.5t-34.5 -52t-62 -38t-93 -14.5z" />
<glyph unicode="&#x438;" horiz-adv-x="629" d="M84 546h79v-373l-2 -69l42 70l263 372h79v-546h-79v372l3 69l-43 -70l-263 -371h-79v546z" />
<glyph unicode="&#x439;" horiz-adv-x="629" d="M316 651q-50 0 -91 24t-67 63l38 41q29 -35 60 -48t60 -13t59.5 13t60.5 48l38 -41q-26 -39 -67 -63t-91 -24zM84 546h79v-373l-2 -69l42 70l263 372h79v-546h-79v372l3 69l-43 -70l-263 -371h-79v546z" />
<glyph unicode="&#x43a;" horiz-adv-x="537" d="M507 -8q-14 1 -31 4.5t-37.5 14.5t-44.5 30.5t-51 51.5l-157 190l221 263h92l-225 -259l116 -134q39 -45 73.5 -70t60.5 -32zM84 546h79v-546h-79v546z" />
<glyph unicode="&#x43b;" horiz-adv-x="581" d="M9 51q28 12 55.5 30.5t45.5 53.5q13 24 23 65t17.5 94.5t12.5 117t7 134.5h327v-546h-79v480h-176q-11 -146 -25.5 -239t-42.5 -147q-23 -42 -56.5 -68.5t-82.5 -42.5z" />
<glyph unicode="&#x43c;" horiz-adv-x="747" d="M84 546h110l171 -493l191 493h106v-546h-76v365l4 89l-173 -454h-106l-155 455l4 -90v-365h-76v546z" />
<glyph unicode="&#x43d;" horiz-adv-x="609" d="M84 546h79v-239h283v239h79v-546h-79v240h-283v-240h-79v546z" />
<glyph unicode="&#x43e;" horiz-adv-x="598" d="M296 -12q-113 0 -178 72t-65 207q0 71 18.5 125.5t51.5 92t80 56.5t104 19q117 0 177.5 -74t60.5 -210q0 -74 -19 -128t-52 -89.5t-78.5 -53t-99.5 -17.5zM301 53q49 0 81 19t50.5 50t25.5 70t7 79q0 39 -7 78.5t-25 72t-50 53t-82 20.5t-82.5 -20.5t-51.5 -52.5 t-26.5 -72t-7.5 -79q0 -42 8 -81.5t27.5 -69.5t52 -48.5t80.5 -18.5z" />
<glyph unicode="&#x43f;" horiz-adv-x="599" d="M84 546h431v-546h-79v480h-273v-480h-79v546z" />
<glyph unicode="&#x440;" horiz-adv-x="590" d="M84 546h79v-45q36 25 73 41t87 16q99 0 156 -71t57 -205q0 -83 -22 -139t-58.5 -90t-85.5 -49t-103 -15q-26 0 -55.5 3t-48.5 6v-218h-79v766zM266 55q52 0 88.5 16.5t59 46t32.5 70.5t10 89q0 38 -7 76t-24 68.5t-45.5 49.5t-72.5 19q-24 0 -45.5 -5.5t-40 -13.5 t-33 -17t-25.5 -16v-372q12 -2 41.5 -6.5t61.5 -4.5z" />
<glyph unicode="&#x441;" horiz-adv-x="497" d="M325 -12q-140 0 -206 67t-66 207q0 73 18 129t52 93.5t81.5 56.5t107.5 19q51 0 88 -11t57 -22l-24 -63q-17 7 -48 17t-73 10q-86 0 -132 -55t-46 -170q0 -51 10 -90t33.5 -65.5t61.5 -40.5t94 -14q36 0 60.5 5t50.5 12l12 -64q-25 -8 -55 -14.5t-76 -6.5z" />
<glyph unicode="&#x442;" horiz-adv-x="479" d="M201 479h-186v67h450v-67h-186v-479h-78v479z" />
<glyph unicode="&#x443;" horiz-adv-x="511" d="M230 0h-37l-176 546h86l118 -390l31 -98l32 96l134 392h81l-267 -766h-76z" />
<glyph unicode="&#x444;" horiz-adv-x="760" d="M341 -8q-62 0 -115 15.5t-91.5 49.5t-60 87.5t-21.5 129.5t22 129.5t61 88t91.5 50.5t113.5 16v196h78v-196q62 0 115 -16t91.5 -50t60 -87.5t21.5 -129.5q0 -77 -22.5 -130.5t-61.5 -87.5t-91.5 -49.5t-112.5 -15.5v-212h-78v212zM419 56q108 0 158 59t50 160 q0 99 -50 158t-158 60v-437zM341 493q-55 0 -94 -15.5t-64.5 -44t-37.5 -69t-12 -90.5t12 -90.5t37.5 -69t65 -44t93.5 -15.5v438z" />
<glyph unicode="&#x445;" horiz-adv-x="501" d="M206 279l-179 267h92l132 -211l133 211h88l-176 -265l190 -281h-95l-140 224l-142 -224h-93z" />
<glyph unicode="&#x446;" horiz-adv-x="626" d="M517 0h-433v546h79v-480h272v480h78v-480h78v-213h-74v147z" />
<glyph unicode="&#x447;" horiz-adv-x="540" d="M377 239q-37 -11 -75.5 -19.5t-88.5 -8.5t-82.5 11t-51.5 32t-26.5 50.5t-7.5 66.5v175h79v-166q0 -23 4 -41.5t16 -32t35 -21t61 -7.5q42 0 75 8.5t62 18.5v241h78v-546h-78v239z" />
<glyph unicode="&#x448;" horiz-adv-x="843" d="M84 546h79v-480h219v480h79v-480h219v480h79v-546h-675v546z" />
<glyph unicode="&#x449;" horiz-adv-x="872" d="M763 0h-679v546h79v-480h219v480h79v-480h219v480h79v-480h78v-213h-74v147z" />
<glyph unicode="&#x44a;" horiz-adv-x="608" d="M176 479h-160v67h238v-479h120q56 0 88 27t32 78q0 29 -11 49.5t-29.5 33t-44.5 18.5t-56 6h-66v67h73q102 0 158.5 -44t56.5 -131q0 -37 -12 -68t-34.5 -54t-55 -36t-72.5 -13h-225v479z" />
<glyph unicode="&#x44b;" horiz-adv-x="730" d="M84 546h79v-479h120q56 0 86.5 27t30.5 78q0 58 -39 82.5t-100 24.5h-68v67h75q103 0 158 -44t55 -131q0 -37 -12 -68t-34 -54t-53.5 -36t-71.5 -13h-226v546zM565 546h80v-546h-80v546z" />
<glyph unicode="&#x44c;" horiz-adv-x="517" d="M84 546h79v-479h120q56 0 87.5 27t31.5 78q0 58 -40 82.5t-101 24.5h-68v67h75q103 0 159 -44t56 -131q0 -37 -12 -68t-34.5 -54t-54.5 -36t-72 -13h-226v546z" />
<glyph unicode="&#x44d;" horiz-adv-x="499" d="M191 -11q-51 0 -90.5 12t-63.5 24l25 61q19 -9 49.5 -20.5t76.5 -11.5q45 0 77 15t53.5 41t33 60.5t13.5 73.5h-228v66h228q-3 34 -12.5 67.5t-28.5 59t-49.5 41.5t-73.5 16q-46 0 -79 -10.5t-52 -18.5l-25 62q28 13 67 22.5t91 9.5q121 0 182 -72.5t61 -212.5 q0 -69 -19.5 -122t-53.5 -89t-80.5 -55t-101.5 -19z" />
<glyph unicode="&#x44e;" horiz-adv-x="823" d="M521 -9q-109 0 -173 63.5t-70 185.5h-115v-240h-79v546h79v-239h116q5 61 25.5 108t53.5 78.5t76 48t93 16.5q123 0 183 -73.5t60 -211.5q0 -72 -19 -125t-52.5 -88t-79 -52t-98.5 -17zM526 56q49 0 81 18.5t50.5 49t25.5 69.5t7 80q0 38 -7 77t-25.5 71t-50.5 52.5 t-83 20.5q-50 0 -82 -20t-51 -52t-26.5 -71.5t-7.5 -78.5q0 -43 8.5 -82t28 -69t52 -47.5t80.5 -17.5z" />
<glyph unicode="&#x44f;" horiz-adv-x="551" d="M27 57q20 4 35.5 10.5t28.5 16.5t25.5 24.5t26.5 34.5l7 11t15 24.5t15 25t7 12.5q-48 15 -77 54t-29 95q0 42 15 76t41 57t62.5 35.5t78.5 12.5h188v-546h-78v197h-83h-19.5t-18.5 1l-70 -108q-21 -31 -42 -49.5t-41.5 -28.5t-39 -13.5t-35.5 -4.5zM388 258v221h-106 q-60 0 -90.5 -29.5t-30.5 -85.5q0 -29 11 -49t29.5 -32.5t43.5 -18.5t53 -6h90z" />
<glyph unicode="&#x451;" horiz-adv-x="546" d="M120 716l56 56l56 -56l-56 -57zM317 716l56 56l56 -56l-56 -57zM313 -12q-60 0 -107.5 13.5t-81.5 45.5t-52 84.5t-18 130.5q0 80 18.5 136.5t50.5 92.5t75.5 52.5t93.5 16.5q105 0 153.5 -68t48.5 -205v-29h-360q1 -63 16.5 -102.5t41.5 -61.5t60.5 -30t73.5 -8 q40 0 73.5 6.5t71.5 18.5l14 -64q-31 -13 -75.5 -21t-96.5 -8zM412 317q0 84 -30.5 132.5t-97.5 48.5q-60 0 -101 -44.5t-48 -136.5h277z" />
<glyph unicode="&#x452;" horiz-adv-x="604" d="M298 -169q32 29 62 69t52.5 89.5t36 109.5t13.5 129q0 81 -29 130.5t-96 49.5q-29 0 -56.5 -8t-50.5 -19t-40.5 -22t-26.5 -17v-342h-79v574h-107v65h107v115h79v-115h191v-65h-191v-170q14 10 34 23t44.5 24.5t52.5 19.5t59 8q53 0 89.5 -20t58.5 -53.5t31.5 -77.5 t9.5 -91q0 -86 -19 -159t-48 -130.5t-63 -100t-65 -67.5z" />
<glyph unicode="&#x456;" horiz-adv-x="249" d="M84 546h80v-546h-80v546zM58 715l65 66l67 -66l-67 -67z" />
<glyph unicode="&#x458;" horiz-adv-x="249" d="M-20 -224q-22 0 -40.5 3.5t-29.5 8.5l14 64q11 -3 27.5 -5.5t29.5 -2.5q30 0 50 10t32 28t16.5 43.5t4.5 56.5v564h80v-565q0 -60 -14.5 -99.5t-39 -63t-58 -33t-72.5 -9.5zM58 715l65 66l67 -66l-67 -67z" />
<glyph unicode="&#x459;" horiz-adv-x="851" d="M8 51q28 11 56 30t46 54q13 24 23 65t17.5 94.5t12.5 117t7 134.5h327v-479h119q56 0 88 27t32 78q0 29 -11 49.5t-29.5 33t-44.5 18.5t-56 6h-66v67h73q102 0 158.5 -44t56.5 -131q0 -37 -12 -68t-34.5 -54t-55 -36t-72.5 -13h-225v480h-176q-11 -143 -25.5 -235 t-40.5 -147q-23 -44 -56.5 -71t-84.5 -44z" />
<glyph unicode="&#x45a;" horiz-adv-x="864" d="M84 546h79v-222h274v222h78v-479h118q54 0 85.5 23.5t31.5 71.5q0 27 -10.5 45t-29 29.5t-43.5 16t-55 4.5h-64v67h72q101 0 156.5 -41t55.5 -122q0 -35 -12 -64t-34 -51t-54 -34t-71 -12h-224v257h-274v-257h-79v546z" />
<glyph unicode="&#x45b;" horiz-adv-x="593" d="M84 574h-107v65h107v115h79v-115h191v-65h-191v-170q14 10 33 23t42.5 24.5t52.5 19.5t63 8q60 0 93.5 -19t50 -49t20.5 -67t4 -72v-272h-76v267q0 36 -3.5 62.5t-15.5 44t-34.5 26.5t-59.5 9q-24 0 -50 -8.5t-49.5 -19.5t-42.5 -22t-28 -17v-342h-79v574z" />
<glyph unicode="&#x45e;" horiz-adv-x="511" d="M230 0h-37l-176 546h86l118 -390l31 -98l32 96l134 392h81l-267 -766h-76zM258 658q-50 0 -91 24t-67 63l38 41q29 -35 60 -48t60 -13t59.5 13t60.5 48l38 -41q-26 -39 -67 -63t-91 -24z" />
<glyph unicode="&#x45f;" horiz-adv-x="600" d="M263 0h-179v546h79v-480h274v480h78v-546h-178v-147h-74v147z" />
<glyph horiz-adv-x="597" d="M297 -11q-48 0 -89.5 16t-72.5 53t-48.5 97.5t-17.5 149.5v88q0 74 15 141.5t45.5 118.5t78 81.5t113.5 30.5q51 0 87 -14t58.5 -36t32.5 -49t10 -53q0 -51 -34 -93t-96 -73q36 -6 67 -21.5t53.5 -43t35.5 -67t13 -91.5q0 -50 -18.5 -93t-52 -74.5t-79.5 -49.5t-101 -18z M303 52q33 0 62.5 10.5t51.5 32t35 55t13 80.5q0 78 -38 123.5t-100 45.5q-52 0 -95.5 -17.5t-80.5 -40.5v-58q0 -118 41.5 -174.5t110.5 -56.5zM151 398q31 17 58.5 28.5t54.5 23.5q78 34 120 71t42 79q0 22 -9 40.5t-24 32t-35.5 21t-44.5 7.5q-74 0 -118 -73t-44 -204 v-26z" />
<glyph horiz-adv-x="439" d="M227 -12q-81 0 -129.5 35.5t-48.5 105.5q0 43 18.5 73t46 53t60 40.5t60 35t46 37.5t18.5 47q0 32 -25.5 55.5t-66.5 23.5q-36 0 -68 -9.5t-63 -28.5l-23 58q31 22 74 34t88 12q36 0 66.5 -10t52 -28t34 -44t12.5 -57q0 -38 -18.5 -65.5t-46.5 -49t-60.5 -39t-60.5 -36.5 t-46.5 -41t-18.5 -53q0 -38 29 -61t74 -23q43 0 82.5 10t66.5 28l21 -57q-72 -46 -174 -46z" />
<glyph horiz-adv-x="580" d="M265 -230q-45 0 -92 8t-78 22l16 70q35 -12 75.5 -20.5t84.5 -8.5q30 0 57 6t47.5 21.5t32.5 43.5t12 72v55q-29 -23 -58 -34.5t-75 -11.5q-39 0 -80 9.5t-75 38.5t-56 81.5t-22 138.5q0 80 20 136.5t56 92.5t85.5 53t108.5 17q38 0 85 -6.5t88 -16.5v-570 q0 -100 -62.5 -148.5t-169.5 -48.5zM295 57q45 0 73 15.5t51 33.5v370q-11 3 -37 9t-63 6q-53 0 -89 -17t-57.5 -47t-31 -71t-9.5 -90q0 -56 11.5 -96t32.5 -65t51 -36.5t68 -11.5z" />
<glyph horiz-adv-x="771" d="M733 -8q-14 1 -29.5 4t-34 13.5t-40 30.5t-46.5 53l-144 189l206 264h91l-206 -260l99 -133q36 -48 68 -71.5t54 -30.5zM20 51q22 7 54 30.5t68 71.5l100 133l-207 260h91l206 -264l-144 -189q-26 -33 -47 -53t-39 -30.5t-34 -13.5t-30 -4zM346 754h79v-754h-79v754z" />
<glyph horiz-adv-x="477" d="M197 -225q-37 0 -65 3t-50.5 8.5t-41.5 12.5t-38 16l25 66q32 -14 74.5 -26.5t87.5 -12.5q29 0 59 8t54 25.5t39.5 45.5t15.5 69q0 33 -15 60.5t-40 47.5t-57.5 31.5t-68.5 11.5h-64v63h56q27 0 55.5 13.5t51.5 36t37.5 50.5t14.5 58q0 31 -12 55t-30.5 40.5t-42.5 25.5 t-48 9q-53 0 -87 -11t-65 -25l-26 58q35 17 78 31t108 14q47 0 85 -15t64.5 -40.5t41 -59.5t14.5 -73q0 -35 -14 -66.5t-35 -57t-46 -43t-48 -24.5v-2q28 -5 58.5 -18.5t56 -36.5t41.5 -56t16 -78q0 -49 -17 -88.5t-48 -67.5t-75.5 -43t-98.5 -15z" />
<glyph horiz-adv-x="599" d="M241 -12q-56 0 -88.5 20t-48.5 50.5t-20 67.5t-4 72v348h78v-332q0 -32 2.5 -60t13 -49t31.5 -33t58 -12q26 0 51 6.5t47.5 16.5t42 22t35.5 23v418h76v-546h-76v64q-20 -14 -40 -27.5t-44 -24.5t-52 -17.5t-62 -6.5z" />
<glyph horiz-adv-x="599" d="M304 658q-50 0 -91 24t-67 63l38 41q29 -35 60 -48t60 -13t59.5 13t60.5 48l38 -41q-26 -39 -67 -63t-91 -24zM241 -12q-56 0 -88.5 20t-48.5 50.5t-20 67.5t-4 72v348h78v-332q0 -32 2.5 -60t13 -49t31.5 -33t58 -12q26 0 51 6.5t47.5 16.5t42 22t35.5 23v418h76v-546 h-76v64q-20 -14 -40 -27.5t-44 -24.5t-52 -17.5t-62 -6.5z" />
<glyph horiz-adv-x="537" d="M503 -8q-14 1 -31.5 4.5t-38 14t-44.5 30t-50 52.5l-154 195l230 258h91l-232 -255l112 -138q38 -46 73 -70.5t61 -31.5zM84 754h79v-754h-79v754z" />
<glyph horiz-adv-x="534" d="M226 546h109l184 -546h-85l-156 484l-182 -484h-85z" />
<glyph horiz-adv-x="602" d="M84 546h79v-62q21 16 42.5 29.5t44.5 24t49.5 16.5t58.5 6q58 0 91 -19.5t49.5 -50t20.5 -67.5t4 -71v-352h-77v337q0 35 -4 63.5t-15.5 48.5t-32.5 30.5t-56 10.5q-53 0 -95.5 -20.5t-79.5 -46.5v-423h-79v546z" />
<glyph horiz-adv-x="935" d="M84 546h79v-64q40 32 83.5 54.5t98.5 22.5q57 0 94 -23.5t51 -57.5q18 14 39 28.5t45.5 26t53 19t61.5 7.5q58 0 91.5 -19.5t50.5 -49.5t21 -67t4 -71v-352h-79v337q0 32 -3.5 59.5t-15 48t-33 32.5t-57.5 12q-48 0 -88.5 -20t-76.5 -46q6 -35 6 -71v-352h-78v337 q0 32 -3.5 60t-14.5 48.5t-31 32.5t-54 12q-45 0 -87 -21t-78 -50v-419h-79v546z" />
<glyph horiz-adv-x="627" d="M520 0h-81v64q-16 -10 -36.5 -23t-44.5 -24.5t-52.5 -19.5t-61.5 -8q-57 0 -90 19.5t-49.5 50t-20.5 67.5t-4 72v348h78v-332q0 -32 2.5 -60t13 -48.5t31.5 -32.5t59 -12q26 0 53 8.5t51 19.5t43 22t28 17v418h76v-480h79v-213h-74v147z" />
<glyph horiz-adv-x="953" d="M244 -11q-57 0 -90 19.5t-49.5 50t-20.5 67.5t-4 72v348h78v-332q0 -32 2.5 -60t13 -48.5t31.5 -32.5t59 -12q25 0 51.5 8t50.5 18.5t42.5 22t29.5 17.5q-3 18 -4 36t-1 35v348h79v-332q0 -32 2.5 -60t13 -48.5t31.5 -32.5t58 -12q26 0 53 8.5t51 19.5t43 22t28 17v418 h76v-546h-76v64q-16 -10 -36 -23t-44 -24.5t-52.5 -19.5t-61.5 -8q-64 0 -97.5 22.5t-48.5 57.5q-18 -11 -39.5 -25t-47.5 -26t-56.5 -20.5t-64.5 -8.5z" />
<glyph horiz-adv-x="980" d="M872 0h-80v64q-16 -10 -36 -23t-44 -24.5t-52.5 -19.5t-61.5 -8q-64 0 -97.5 22.5t-48.5 57.5q-18 -11 -39.5 -25t-47.5 -26t-56.5 -20.5t-64.5 -8.5q-57 0 -90 19.5t-49.5 50t-20.5 67.5t-4 72v348h78v-332q0 -32 2.5 -60t13 -48.5t31.5 -32.5t59 -12q25 0 51.5 8 t50.5 18.5t42.5 22t29.5 17.5q-3 18 -4 36t-1 35v348h79v-332q0 -32 2.5 -60t13 -48.5t31.5 -32.5t58 -12q26 0 53 8.5t51 19.5t43 22t28 17v418h76v-480h78v-213h-74v147z" />
<glyph horiz-adv-x="606" d="M369 -12q-47 0 -83.5 13.5t-61.5 38t-38 57.5t-13 72v310h-159v67h238v-365q0 -63 32.5 -95t86.5 -32q66 0 93 33.5t27 84.5q0 58 -40 82.5t-101 24.5h-66v67h73q103 0 159 -44t56 -131q0 -37 -13 -70t-39 -58t-64 -40t-87 -15z" />
<glyph horiz-adv-x="510" d="M273 -12q-47 0 -83.5 13.5t-61.5 38t-37.5 57.5t-12.5 72v377h79v-365q0 -63 32.5 -95t86.5 -32q66 0 93 33.5t27 84.5q0 58 -40 82.5t-101 24.5h-66v67h73q103 0 159 -44t56 -131q0 -37 -13 -70t-39 -58t-64 -40t-88 -15z" />
<glyph horiz-adv-x="823" d="M521 -9q-109 0 -173 63.5t-70 185.5h-115v-240h-79v754h79v-447h116q5 61 25.5 108t53.5 78.5t76 48t93 16.5q123 0 183 -73.5t60 -211.5q0 -72 -19 -125t-52.5 -88t-79 -52t-98.5 -17zM526 56q49 0 81 18.5t50.5 49t25.5 69.5t7 80q0 38 -7 77t-25.5 71t-50.5 52.5 t-83 20.5q-50 0 -82 -20t-51 -52t-26.5 -71.5t-7.5 -78.5q0 -43 8.5 -82t28 -69t52 -47.5t80.5 -17.5z" />
<glyph horiz-adv-x="436" d="M84 546h340v-67h-261v-479h-79v546z" />
<glyph horiz-adv-x="586" d="M292 -11q-52 0 -96.5 14t-77 44t-51 77.5t-18.5 114.5q0 49 14 89.5t37.5 72.5t55 56t66.5 40q-45 23 -74.5 54t-29.5 82q0 33 16.5 57.5t44 41t62.5 25t71 8.5q55 0 103 -8t84 -19l-14 -64q-28 8 -71 15.5t-100 7.5q-25 0 -47 -4t-38.5 -11.5t-26 -20t-9.5 -28.5 q0 -24 16.5 -41t43 -32t60 -30.5t68.5 -34.5q31 -17 59.5 -39.5t50.5 -53t35.5 -69.5t13.5 -89q0 -72 -20.5 -121t-55 -78.5t-79.5 -42.5t-93 -13zM298 54q45 0 76.5 15t50.5 41t27.5 61t8.5 74q0 50 -16 85t-41.5 60t-57.5 42.5t-64 32.5q-42 -15 -71.5 -40t-47.5 -55 t-26 -62.5t-8 -62.5q0 -42 9.5 -77.5t29.5 -60.5t52.5 -39t77.5 -14z" />
<glyph horiz-adv-x="618" d="M17 66h54q13 21 23 41t18.5 40.5t15 42t14.5 47.5q4 16 9.5 48.5t10.5 74.5t8.5 90t5.5 96h329v-480h78v-213h-74v147h-418v-147h-74v213zM427 66v414h-181q-9 -98 -17 -164.5t-19 -110.5q-9 -35 -21 -66.5t-32 -72.5h270z" />
<glyph horiz-adv-x="599" d="M84 546h431v-546h-79v480h-273v-480h-79v546z" />
<glyph horiz-adv-x="479" d="M201 479h-186v67h450v-67h-186v-479h-78v479z" />
<glyph unicode="0" horiz-adv-x="663" d="M585 364q0 -83 -14 -152t-45.5 -118t-81 -76t-119.5 -27q-71 0 -119 27.5t-76.5 75t-40.5 111.5t-12 137t12.5 140t43 118.5t81.5 82t128 30.5q76 0 123.5 -30t74 -79t36 -112t9.5 -128zM503 358q0 46 -5.5 97t-22.5 93.5t-50.5 70t-88.5 27.5q-59 0 -94 -28.5t-53.5 -72 t-24 -97t-5.5 -102.5q0 -54 7 -105.5t26 -92t52.5 -65t85.5 -24.5q57 0 91.5 26.5t52.5 69.5t23.5 96t5.5 107z" />
<glyph unicode="1" horiz-adv-x="343" d="M157 0v639h-141v62l220 6v-707h-79z" />
<glyph unicode="2" horiz-adv-x="534" d="M36 0v65q6 6 33 30.5t64 61t78.5 81t76.5 92t58 93t23 84.5q0 40 -8.5 66.5t-25 42.5t-41 22.5t-55.5 6.5q-30 0 -54.5 -5t-43 -12t-31.5 -14t-19 -11l-31 57q11 7 27.5 17t39.5 18t52.5 14t66.5 6q64 0 103.5 -18t61.5 -47t30 -64.5t8 -69.5q0 -57 -25.5 -113 t-68.5 -111.5t-99.5 -111t-117.5 -111.5h355v-69h-457z" />
<glyph unicode="3" horiz-adv-x="500" d="M439 185q0 -55 -17.5 -92.5t-48.5 -60t-72.5 -32t-89.5 -9.5q-45 0 -78.5 4.5t-56.5 9.5q-27 6 -46 15l19 66q19 -6 59 -15t93 -9q30 0 58.5 4t51 16.5t36.5 36.5t14 65q0 34 -14.5 61t-40.5 46t-61.5 30t-77.5 14v66q33 3 62.5 14.5t52 30t35.5 43.5t13 54q0 30 -10 50 t-27 32t-39 17t-46 5q-26 0 -48 -3.5t-38 -7.5q-19 -5 -34 -11l-24 58q23 11 60 21.5t88 10.5q43 0 79 -10.5t61.5 -31t39.5 -51.5t14 -72q0 -36 -12.5 -65.5t-32 -51.5t-42.5 -36.5t-44 -20.5q28 -7 57 -22.5t53 -39.5t39 -56t15 -73z" />
<glyph unicode="4" horiz-adv-x="574" d="M420 189v-189h-79v189h-312v70l273 448h118v-448h122v-70h-122zM341 647l-234 -388h234v388z" />
<glyph unicode="5" horiz-adv-x="522" d="M465 213q0 -54 -17.5 -95.5t-48.5 -69.5t-74 -42.5t-94 -14.5q-68 0 -110 7.5t-62 13.5l20 70q29 -8 65 -13t87 -5q68 0 111.5 36t43.5 101q0 40 -11.5 68.5t-32 46.5t-48 26.5t-59.5 8.5q-11 0 -21 -0.5t-20 -0.5q-26 -1 -53 -2.5t-57 -4.5v364h356v-68h-280v-221 q24 2 45.5 2h44.5q49 0 89 -14t68 -41t43 -65.5t15 -86.5z" />
<glyph unicode="6" horiz-adv-x="583" d="M311 -13q-56 0 -100 15.5t-74 52t-46 97t-16 150.5q0 103 22.5 180.5t63 129t96.5 77t123 25.5q38 0 62.5 -4.5t38.5 -9.5l-16 -65q-14 4 -33.5 6.5t-51.5 2.5q-67 0 -110.5 -30t-69 -79t-36 -111.5t-10.5 -127.5q0 -58 7 -103t25.5 -75.5t50 -46.5t81.5 -16 q33 0 58 12.5t42.5 34.5t26.5 51t9 62q0 40 -10.5 68.5t-29.5 47t-45.5 27.5t-57.5 9q-20 0 -35 -2t-43 -7l-0.5 10t-0.5 23t-0.5 23l-0.5 10q19 5 39.5 8t50.5 3q54 0 94 -15.5t66 -43.5t39 -66.5t13 -84.5q0 -59 -16.5 -103.5t-46 -74.5t-70.5 -45t-89 -15z" />
<glyph unicode="7" horiz-adv-x="458" d="M132 -8l-70 25l301 620h-350v70h428v-68z" />
<glyph unicode="8" horiz-adv-x="583" d="M288 -12q-51 0 -93 13t-72 36.5t-46.5 56.5t-16.5 74q0 39 14 69t37 53.5t52.5 42.5t60.5 37q-27 17 -51.5 35t-43.5 39.5t-30 46.5t-11 57q0 78 56.5 123.5t154.5 45.5q49 0 86 -14.5t61.5 -37.5t37 -52t12.5 -59q0 -33 -12 -59.5t-32 -48t-46 -40t-54 -35.5 q32 -18 62.5 -36.5t54 -41t38 -51t14.5 -64.5q0 -44 -16 -79t-46.5 -60t-73.5 -38t-97 -13zM294 53q64 0 105 31t41 98q0 26 -13 47t-34.5 40t-49.5 35.5t-58 33.5q-29 -16 -55 -33t-46 -36.5t-32 -42.5t-12 -51q0 -59 43 -90.5t111 -31.5zM290 401q26 14 49 29t40.5 32.5 t27.5 37.5t10 44q0 21 -6.5 41t-20.5 35.5t-36.5 24.5t-55.5 9q-66 0 -99 -30t-33 -80q0 -24 10 -43.5t26.5 -37t39 -32.5t48.5 -30z" />
<glyph unicode="9" horiz-adv-x="584" d="M194 -9q-36 0 -57 4.5t-38 9.5l17 66q6 -2 29.5 -6t48.5 -4q79 0 125.5 28t71 75.5t31.5 110t7 132.5q0 47 -8.5 90t-27.5 76t-49.5 53t-74.5 20q-33 0 -58.5 -11.5t-43 -32t-26.5 -48.5t-9 -61q0 -48 11 -79.5t30 -50.5t45 -26.5t57 -7.5q22 0 42 2.5t39 7.5l5 -65 q-15 -5 -41.5 -9t-59.5 -4q-100 0 -154 57t-54 167q0 57 17 100t47 72t71 44t89 15q52 0 95.5 -20.5t74.5 -60t48 -98.5t17 -137q0 -114 -20.5 -192t-60.5 -126t-99 -69.5t-137 -21.5z" />
<glyph unicode="&#x2122;" horiz-adv-x="789" d="M338 707h80l105 -299l117 299h77v-355h-61l1 262l-103 -262h-66l-91 263l1 -263h-60v355zM140 653h-117v54h294v-54h-117v-301h-60v301z" />
<glyph unicode="&#xae;" horiz-adv-x="555" d="M509 532q0 -53 -18 -94.5t-49 -69.5t-73 -42.5t-90 -14.5q-39 0 -80 11t-75 37t-56 68.5t-22 104.5q0 54 18 95.5t49.5 70t73.5 43.5t91 15q42 0 83 -12t74 -39t53.5 -69.5t20.5 -103.5zM463 532q0 48 -16 82t-42 56.5t-59 33t-67 10.5q-37 0 -71 -10t-59.5 -31.5 t-40.5 -55.5t-15 -81q0 -59 21.5 -95t51.5 -55.5t62.5 -26t55.5 -6.5q37 0 70 11.5t57 34.5t38 56t14 77zM394 417q-23 1 -40.5 6.5t-31.5 20.5q-16 16 -29 36t-22 34h-34v-91h-47v242h90q38 0 61 -18t23 -57q0 -47 -45 -68q6 -8 15.5 -22.5t20.5 -25.5t21.5 -15t23.5 -9z M319 589q0 22 -10 32t-36 10h-36v-84h31q26 0 38.5 9.5t12.5 32.5z" />
<glyph unicode="&#xa9;" horiz-adv-x="828" d="M439 151q-52 0 -91 15.5t-65.5 43t-40 65t-13.5 81.5q0 47 13 86t39.5 66.5t65.5 42.5t90 15q39 0 67.5 -7t52.5 -21l-20 -47q-26 11 -46.5 15.5t-52.5 4.5q-30 0 -56.5 -8.5t-47 -26.5t-32.5 -46.5t-12 -68.5t12.5 -69t34.5 -48t51 -28t62 -9q25 0 46.5 4.5t46.5 12.5 l18 -49q-31 -13 -59 -18.5t-63 -5.5zM406 -13q-82 0 -146 27t-108.5 75t-67.5 115.5t-23 148.5q0 84 26.5 151t74.5 114.5t115 72.5t148 25q85 0 149.5 -28t107.5 -77t64.5 -115.5t21.5 -144.5q0 -82 -25 -149t-71.5 -115t-113.5 -74t-152 -26zM409 41q75 0 131 24t92.5 66 t54.5 98.5t18 122.5t-19 122.5t-56 98t-91 65t-123 23.5q-73 0 -127.5 -23.5t-91 -65t-55 -97.5t-18.5 -121q0 -63 17.5 -119.5t53 -99.5t89 -68.5t125.5 -25.5z" />
<glyph unicode="&#xa4;" horiz-adv-x="543" d="M58 179l69 67q-15 19 -25 47t-10 59t9 59t25 47l-68 68l39 38l70 -70q21 13 48.5 22.5t55.5 9.5t55 -7t50 -23l68 69l40 -40l-68 -67q17 -19 25.5 -47t8.5 -59t-9 -59.5t-26 -47.5l67 -68l-37 -39l-70 69q-22 -12 -49 -20t-55 -8t-54.5 8t-48.5 22l-71 -70zM271 242 q58 0 84 32t26 78q1 46 -26.5 78.5t-83.5 32.5t-83.5 -32.5t-27.5 -78.5t28.5 -78t82.5 -32z" />
<glyph unicode="&#x20ac;" horiz-adv-x="663" d="M442 -8q-65 0 -115 17.5t-86 49t-59 75t-35 94.5h-86v64h76q-2 14 -2 28.5v28.5q0 17 0.5 33t2.5 31h-77v64h87q26 109 98.5 172t194.5 63q70 0 109.5 -12t62.5 -23l-24 -60q-26 10 -60 18.5t-89 8.5q-166 0 -207 -167h250v-64h-261q-3 -26 -3 -54q0 -18 1 -34.5t3 -32.5 h260v-64h-246q22 -78 75.5 -122t147.5 -44q51 0 83.5 8t49.5 14l22 -63q-14 -6 -28 -11t-33.5 -9t-46.5 -6.5t-65 -2.5z" />
<glyph unicode="$" horiz-adv-x="537" d="M489 186q0 -44 -14.5 -77t-40 -56.5t-61 -37.5t-76.5 -19l3 -95h-78l1 91q-69 2 -110.5 14t-69.5 27l28 66q39 -17 77.5 -26.5t89.5 -9.5q30 0 60 5.5t54.5 19t40 36t15.5 56.5q0 44 -25.5 72t-64 49t-83.5 40t-83.5 44.5t-64 62.5t-25.5 95q0 37 12.5 65.5t34 49t51 33 t63.5 17.5l-2 92h78l-2 -89q49 -2 83 -10.5t63 -21.5l-23 -61q-32 11 -65 18t-82 7q-57 0 -95 -22t-38 -74q0 -40 26 -66.5t64.5 -47.5t84 -41t84 -47t64.5 -65t26 -94z" />
<glyph unicode="&#xa2;" horiz-adv-x="520" d="M269 99q-109 14 -158.5 81t-49.5 197q0 121 55 194t152 88l-2 95h77l-2 -92q45 -2 74.5 -11t47.5 -19l-24 -63q-22 9 -51 18t-74 9q-78 0 -125 -55.5t-47 -160.5q0 -56 9.5 -96.5t33 -67.5t63 -40t98.5 -13q32 0 59.5 6t44.5 8l12 -64q-13 -4 -46 -10.5t-75 -7.5l3 -95 h-78z" />
<glyph unicode="&#xa3;" horiz-adv-x="532" d="M70 0v70q21 7 36 32t24.5 54.5t14 56.5t5.5 39h-95v69h100q2 26 2 56v62v69q0 51 13.5 85.5t35 57t49 34t56 16.5t55.5 6t48 2l4 -67q-33 -3 -66.5 -6t-59.5 -15.5t-42 -39.5t-15 -77q1 -15 1 -30.5v-30.5q0 -33 -1.5 -63.5t-3.5 -58.5h184v-69h-190q-14 -130 -62 -183 h326v-69h-419z" />
<glyph unicode="&#xa5;" horiz-adv-x="660" d="M396 323h188v-69h-219v-97h219v-69h-219v-88h-83v88h-207v69h207v97h-207v69h178l-202 384h93l183 -366l195 366h88z" />
<glyph unicode="&#x2116;" horiz-adv-x="1176" d="M938 304q-78 0 -122 41.5t-44 112.5q0 37 12.5 67t35 51t53.5 32t68 11q85 0 126.5 -42t41.5 -116q0 -38 -13.5 -67.5t-37 -49.5t-54.5 -30t-66 -10zM941 360q27 0 46 8t30.5 22t16.5 31.5t5 37.5q0 18 -5 36t-16.5 32.5t-30.5 23t-46 8.5t-45.5 -8.5t-30 -23t-17 -32.5 t-5.5 -36q0 -41 22.5 -70t75.5 -29zM775 177h334v-59h-334v59zM103 707h105l372 -614h2l-4 89v525h83v-707h-110l-367 605h-3l4 -73v-532h-82v707z" />
</font>
</defs>
</svg>
